<?xml version="1.0" encoding="utf-8"?>
<!-- Generator: Adobe Illustrator 23.0.3, SVG Export Plug-In . SVG Version: 6.00 Build 0)  -->
<svg version="1.1" id="Layer_1" xmlns="http://www.w3.org/2000/svg" xmlns:xlink="http://www.w3.org/1999/xlink" x="0px" y="0px"
	 viewBox="0 0 368.2 81.5" style="enable-background:new 0 0 368.2 81.5;" xml:space="preserve">
<style type="text/css">
	.st0{fill:#FFFFFF;}
</style>
<g>
	<path class="st0" d="M143.4,63.3l-5.7,12.8h-1.3l-5.7-12.8h1.5l4.9,11.1l4.9-11.1C142,63.3,143.4,63.3,143.4,63.3z"/>
	<path class="st0" d="M145.9,64.1c-0.2-0.2-0.3-0.4-0.3-0.7c0-0.2,0.1-0.5,0.3-0.6c0.2-0.2,0.4-0.3,0.7-0.3s0.5,0.1,0.7,0.3
		s0.3,0.4,0.3,0.6c0,0.3-0.1,0.5-0.3,0.7c-0.2,0.2-0.4,0.3-0.7,0.3C146.3,64.4,146.1,64.3,145.9,64.1z M145.9,66.5h1.3v9.6h-1.3
		V66.5z"/>
	<path class="st0" d="M154.4,66.9c0.7-0.4,1.5-0.5,2.3-0.5v1.3h-0.3c-0.9,0-1.8,0.3-2.4,0.9c-0.6,0.7-0.9,1.7-0.9,2.6v4.9h-1.3v-9.7
		h1.3v1.9C153.3,67.7,153.8,67.2,154.4,66.9z"/>
	<path class="st0" d="M168.8,66.5V75c0.1,1.3-0.3,2.6-1.2,3.6c-1,0.9-2.3,1.3-3.6,1.2c-0.9,0-1.7-0.1-2.5-0.4
		c-0.7-0.2-1.4-0.6-1.9-1.1l0.7-1c0.5,0.4,1.1,0.8,1.7,1c0.7,0.2,1.4,0.3,2.1,0.3c1,0.1,1.9-0.2,2.7-0.8c0.6-0.7,0.9-1.7,0.9-2.7
		v-1.2c-0.4,0.6-0.9,1.1-1.5,1.4c-0.7,0.3-1.4,0.5-2.2,0.5c-0.9,0-1.7-0.1-2.5-0.5c-0.7-0.4-1.3-1-1.7-1.7s-0.6-1.6-0.6-2.4
		s0.2-1.7,0.6-2.4c0.4-0.7,1-1.3,1.7-1.7c0.8-0.4,1.6-0.6,2.5-0.6c0.8,0,1.5,0.2,2.2,0.5c0.6,0.3,1.2,0.8,1.5,1.4v-1.9
		C167.7,66.5,168.8,66.5,168.8,66.5z M165.7,74.1c0.5-0.3,1-0.7,1.3-1.3c0.6-1.1,0.6-2.5,0-3.7c-0.3-0.5-0.8-1-1.3-1.2
		c-0.6-0.3-1.2-0.5-1.9-0.5s-1.3,0.1-1.9,0.4c-0.5,0.3-1,0.7-1.3,1.2c-0.3,0.6-0.5,1.2-0.5,1.8c0,0.6,0.1,1.3,0.5,1.8
		c0.3,0.5,0.8,1,1.3,1.3C163.1,74.7,164.5,74.7,165.7,74.1z"/>
	<path class="st0" d="M173.3,64.1c-0.2-0.2-0.3-0.4-0.3-0.7c0-0.2,0.1-0.5,0.3-0.6c0.2-0.2,0.4-0.3,0.7-0.3s0.5,0.1,0.7,0.3
		s0.3,0.4,0.3,0.6c0,0.3-0.1,0.5-0.3,0.7c-0.2,0.2-0.4,0.3-0.7,0.3C173.8,64.4,173.5,64.3,173.3,64.1z M173.3,66.5h1.3v9.6h-1.3
		V66.5z"/>
	<path class="st0" d="M187.1,67.4c0.8,0.8,1.1,1.9,1.1,3.1v5.6h-1.3v-5.5c0.1-0.8-0.2-1.7-0.8-2.3c-0.6-0.5-1.4-0.8-2.1-0.8
		c-0.9,0-1.8,0.3-2.5,0.9c-0.6,0.7-1,1.6-0.9,2.6v5.1h-1.3v-9.6h1.3v1.8c0.4-0.6,0.9-1.1,1.5-1.4c0.7-0.3,1.4-0.5,2.2-0.5
		C185.3,66.4,186.3,66.7,187.1,67.4z"/>
	<path class="st0" d="M192.6,64.1c-0.2-0.2-0.3-0.4-0.3-0.7c0-0.2,0.1-0.5,0.3-0.6c0.2-0.2,0.4-0.3,0.7-0.3s0.5,0.1,0.7,0.3
		s0.3,0.4,0.3,0.6c0,0.3-0.1,0.5-0.3,0.7c-0.2,0.2-0.4,0.3-0.7,0.3S192.8,64.3,192.6,64.1z M192.6,66.5h1.3v9.6h-1.3V66.5z"/>
	<path class="st0" d="M204.8,67.3c0.7,0.7,1.1,1.8,1,2.8v6h-1.2v-1.5c-0.3,0.5-0.8,0.9-1.3,1.2c-0.6,0.3-1.3,0.4-2,0.4
		c-0.9,0.1-1.8-0.2-2.6-0.8c-0.6-0.5-1-1.2-1-2s0.3-1.5,0.9-2c0.8-0.6,1.8-0.8,2.8-0.8h3.1V70c0.1-0.7-0.2-1.4-0.7-1.9
		c-0.6-0.5-1.3-0.7-2-0.7c-0.6,0-1.2,0.1-1.8,0.3c-0.5,0.2-1,0.5-1.5,0.8l-0.6-1c0.5-0.4,1.1-0.8,1.8-1s1.4-0.3,2.2-0.3
		C202.9,66.3,204,66.6,204.8,67.3z M203.3,74.7c0.5-0.4,1-0.9,1.2-1.5v-1.5h-3.1c-1.7,0-2.5,0.6-2.5,1.7c0,0.5,0.2,1,0.6,1.3
		c0.5,0.3,1.2,0.5,1.8,0.5C202,75.2,202.7,75,203.3,74.7z"/>
	<path class="st0" d="M217.1,75.8c-0.8-0.2-1.5-0.7-2-1.2l0.5-1c0.5,0.5,1.2,0.9,1.8,1.1c0.8,0.3,1.6,0.4,2.4,0.4
		c0.9,0.1,1.8-0.2,2.6-0.6c0.5-0.4,0.9-1,0.9-1.6c0-0.5-0.1-0.9-0.5-1.2c-0.3-0.3-0.7-0.6-1.1-0.7c-0.6-0.2-1.3-0.4-1.9-0.6
		c-0.8-0.2-1.5-0.4-2.3-0.7c-0.6-0.2-1.1-0.6-1.5-1c-0.4-0.5-0.6-1.2-0.6-1.9c0-0.6,0.2-1.2,0.5-1.8c0.4-0.6,0.9-1,1.5-1.3
		c0.8-0.3,1.7-0.5,2.6-0.5c0.7,0,1.5,0.1,2.2,0.3c0.6,0.2,1.3,0.5,1.8,0.8l-0.5,1.1c-0.5-0.3-1.1-0.6-1.7-0.8
		c-0.6-0.2-1.2-0.3-1.8-0.3c-0.9-0.1-1.8,0.2-2.5,0.7c-0.5,0.4-0.9,1-0.8,1.7c0,0.5,0.1,0.9,0.5,1.2c0.3,0.3,0.7,0.6,1.2,0.7
		c0.5,0.2,1.1,0.4,1.9,0.6c0.8,0.2,1.5,0.4,2.3,0.7c0.6,0.2,1.1,0.6,1.5,1c0.4,0.5,0.6,1.2,0.6,1.9c0,0.6-0.2,1.2-0.5,1.8
		c-0.4,0.6-0.9,1-1.5,1.3c-0.8,0.3-1.8,0.5-2.7,0.5C218.9,76.2,218,76.1,217.1,75.8z"/>
	<path class="st0" d="M229.7,75.6c-0.7-0.4-1.4-1-1.8-1.7c-0.4-0.8-0.7-1.6-0.6-2.5c0-0.9,0.2-1.8,0.6-2.5c0.4-0.7,1-1.3,1.8-1.7
		c0.8-0.4,1.6-0.6,2.5-0.6s1.7,0.2,2.5,0.6c0.7,0.4,1.3,1,1.7,1.7c0.4,0.8,0.6,1.6,0.6,2.5s-0.2,1.8-0.6,2.5c-0.4,0.7-1,1.3-1.7,1.7
		c-0.8,0.4-1.6,0.7-2.5,0.6C231.4,76.2,230.5,76,229.7,75.6z M234,74.6c0.5-0.3,1-0.8,1.3-1.3c0.3-0.6,0.5-1.3,0.5-2s-0.1-1.4-0.5-2
		c-0.3-0.6-0.7-1-1.3-1.3c-1.1-0.6-2.5-0.6-3.7,0c-0.5,0.3-1,0.8-1.3,1.3c-0.3,0.6-0.5,1.3-0.5,2s0.1,1.4,0.5,2
		c0.3,0.6,0.7,1,1.3,1.3C231.5,75.2,232.9,75.2,234,74.6z"/>
	<path class="st0" d="M242.1,75.6c-0.7-0.4-1.4-1-1.8-1.7c-0.4-0.8-0.7-1.7-0.6-2.5c0-0.9,0.2-1.8,0.6-2.5c0.4-0.7,1-1.3,1.8-1.7
		c0.8-0.4,1.7-0.6,2.6-0.6c0.8,0,1.5,0.2,2.2,0.5c0.6,0.3,1.2,0.8,1.5,1.4l-1,0.7c-0.3-0.5-0.7-0.8-1.2-1.1c-0.5-0.2-1-0.4-1.5-0.4
		c-0.7,0-1.3,0.2-1.9,0.5c-0.6,0.3-1,0.8-1.3,1.3c-0.6,1.2-0.6,2.7,0,3.9c0.3,0.6,0.7,1,1.3,1.3s1.2,0.5,1.9,0.5
		c0.5,0,1.1-0.1,1.5-0.4c0.5-0.2,0.9-0.6,1.2-1.1l1,0.7c-0.4,0.6-0.9,1.1-1.5,1.4c-0.7,0.3-1.5,0.5-2.2,0.5
		C243.8,76.2,242.9,76,242.1,75.6z"/>
	<path class="st0" d="M252,64.1c-0.2-0.2-0.3-0.4-0.3-0.7c0-0.2,0.1-0.5,0.3-0.6c0.2-0.2,0.4-0.3,0.7-0.3s0.5,0.1,0.7,0.3
		s0.3,0.4,0.3,0.6c0,0.3-0.1,0.5-0.3,0.7C252.9,64.4,252.3,64.4,252,64.1z M252,66.5h1.3v9.6H252V66.5z"/>
	<path class="st0" d="M266.3,71.7h-8.1c0,0.9,0.4,1.8,1.1,2.4s1.7,1,2.6,0.9c0.6,0,1.1-0.1,1.7-0.3c0.5-0.2,0.9-0.5,1.3-0.9l0.7,0.8
		c-0.4,0.5-0.9,0.9-1.5,1.2c-1.5,0.6-3.3,0.5-4.7-0.2c-0.8-0.4-1.4-1-1.8-1.7c-0.4-0.8-0.6-1.6-0.6-2.5s0.2-1.8,0.6-2.5
		s1-1.3,1.7-1.7c1.5-0.8,3.3-0.8,4.8,0c0.7,0.4,1.3,1,1.7,1.7c0.4,0.8,0.6,1.7,0.6,2.5L266.3,71.7z M259.3,68.4
		c-0.6,0.6-1,1.4-1.1,2.3h6.8c-0.1-0.9-0.4-1.7-1.1-2.3c-0.6-0.6-1.5-0.9-2.4-0.9C260.7,67.5,259.9,67.8,259.3,68.4z"/>
	<path class="st0" d="M275,75.5c-0.3,0.2-0.6,0.4-0.9,0.5c-0.4,0.1-0.7,0.2-1.1,0.2c-0.8,0-1.5-0.2-2.1-0.7
		c-0.5-0.6-0.8-1.3-0.7-2.1v-5.8h-1.7v-1.1h1.7v-2.1h1.3v2.1h2.9v1.1h-2.9v5.8c0,0.5,0.1,0.9,0.4,1.3c0.3,0.3,0.8,0.5,1.2,0.4
		c0.3,0,0.5,0,0.8-0.1c0.2-0.1,0.5-0.2,0.7-0.4L275,75.5z"/>
	<path class="st0" d="M286.2,66.5l-4.8,10.7c-0.3,0.7-0.8,1.4-1.4,1.9c-0.5,0.4-1.2,0.6-1.9,0.6c-0.4,0-0.9-0.1-1.3-0.2
		s-0.7-0.4-1-0.7l0.6-1c0.5,0.5,1.1,0.7,1.8,0.7c0.4,0,0.8-0.1,1.1-0.4c0.4-0.3,0.7-0.8,0.9-1.3l0.4-0.9l-4.3-9.6h1.4l3.6,8.2
		l3.6-8.2L286.2,66.5z"/>
	<path class="st0" d="M296.2,75.6c-0.7-0.4-1.3-1-1.8-1.7c-0.4-0.8-0.7-1.6-0.6-2.5c0-0.9,0.2-1.8,0.6-2.5s1-1.3,1.8-1.7
		c1.6-0.8,3.5-0.8,5,0c0.7,0.4,1.3,1,1.7,1.7c0.4,0.8,0.7,1.6,0.6,2.5c0,0.9-0.2,1.8-0.6,2.5s-1,1.3-1.7,1.7
		C299.6,76.4,297.7,76.4,296.2,75.6z M300.5,74.6c0.5-0.3,1-0.8,1.3-1.3c0.3-0.6,0.5-1.3,0.5-2s-0.1-1.4-0.5-2
		c-0.3-0.6-0.7-1-1.3-1.3c-0.6-0.3-1.2-0.5-1.9-0.5c-0.6,0-1.3,0.2-1.8,0.5s-1,0.8-1.3,1.3c-0.3,0.6-0.5,1.3-0.5,2s0.1,1.4,0.5,2
		c0.3,0.6,0.7,1,1.3,1.3c0.6,0.3,1.2,0.5,1.8,0.5C299.3,75.1,300,74.9,300.5,74.6L300.5,74.6z"/>
	<path class="st0" d="M309.1,64c-0.3,0.4-0.5,0.9-0.4,1.4v1.1h3v1.1h-2.9v8.5h-1.3v-8.5h-1.7v-1.1h1.7v-1.2c0-0.8,0.2-1.5,0.8-2.1
		c0.6-0.5,1.4-0.8,2.1-0.8c0.4,0,0.7,0,1.1,0.2c0.3,0.1,0.6,0.2,0.9,0.4l-0.4,1c-0.4-0.3-0.9-0.5-1.4-0.5
		C309.9,63.5,309.5,63.6,309.1,64z"/>
	<path class="st0" d="M322.5,75.4c-1-0.5-1.8-1.4-2.4-2.3c-1.2-2.1-1.2-4.6,0-6.7c0.6-1,1.4-1.8,2.4-2.3c1.9-1,4.1-1.1,6.1-0.4
		c0.8,0.3,1.5,0.8,2.1,1.4l-0.9,0.9c-1-1-2.4-1.6-3.8-1.5c-1,0-1.9,0.2-2.8,0.7c-0.8,0.4-1.5,1.1-2,1.9c-0.9,1.7-0.9,3.7,0,5.4
		c0.5,0.8,1.1,1.5,2,1.9c0.8,0.5,1.8,0.7,2.8,0.7c1.4,0.1,2.8-0.5,3.8-1.5l0.9,0.9c-0.6,0.6-1.3,1.1-2.1,1.4
		c-0.8,0.3-1.7,0.5-2.7,0.5C324.8,76.2,323.6,76,322.5,75.4z"/>
	<path class="st0" d="M343.2,64.5c1.8,1.7,1.9,4.5,0.2,6.3c-0.1,0.1-0.1,0.1-0.2,0.2c-1.1,0.8-2.5,1.2-3.9,1.2h-3.4v4h-1.3V63.3h4.8
		C340.7,63.2,342.1,63.6,343.2,64.5z M342.2,70.1c1.3-1.3,1.4-3.3,0.1-4.7l-0.1-0.1c-0.8-0.6-1.9-0.9-2.9-0.8h-3.4v6.4h3.4
		C340.3,71,341.4,70.7,342.2,70.1L342.2,70.1z"/>
	<path class="st0" d="M355.9,72.7h-7.2l-1.5,3.4h-1.4l5.9-12.8h1.3l5.9,12.8h-1.4L355.9,72.7z M355.4,71.6l-3.1-6.9l-3.1,6.9H355.4z
		"/>
	<path class="st0" d="M361.9,75.9c-0.6-0.2-1.2-0.5-1.7-0.8l0.6-1c0.5,0.3,1,0.6,1.5,0.8c0.6,0.2,1.3,0.3,1.9,0.3
		c0.7,0,1.4-0.1,2-0.4c0.4-0.2,0.6-0.7,0.6-1.2c0-0.3-0.1-0.6-0.4-0.8c-0.3-0.2-0.6-0.4-0.9-0.5c-0.5-0.1-0.9-0.2-1.4-0.3
		c-0.6-0.1-1.3-0.3-1.9-0.4c-0.5-0.1-0.9-0.4-1.2-0.8c-0.4-0.4-0.5-1-0.5-1.5c0-0.8,0.4-1.5,1-2c0.8-0.6,1.8-0.8,2.8-0.8
		c0.6,0,1.3,0.1,1.9,0.2c0.5,0.1,1.1,0.4,1.5,0.7l-0.6,1c-0.9-0.5-1.9-0.8-2.9-0.8c-0.7,0-1.3,0.1-1.9,0.4c-0.4,0.3-0.6,0.7-0.6,1.1
		c0,0.3,0.1,0.7,0.4,0.9c0.3,0.2,0.6,0.4,0.9,0.5c0.4,0.1,0.9,0.2,1.5,0.3c0.7,0.1,1.4,0.3,1.9,0.4s0.9,0.4,1.2,0.8
		c0.4,0.4,0.5,1,0.5,1.5c0,0.8-0.4,1.6-1.1,2c-0.9,0.5-1.9,0.8-2.9,0.8C363.5,76.3,362.7,76.1,361.9,75.9z"/>
	<path class="st0" d="M170.8,4.8L149,54.1h-5.2L122,4.8h5.6l18.9,42.8l19-42.8C165.5,4.8,170.8,4.8,170.8,4.8z"/>
	<path class="st0" d="M182.4,52.8c-2.9-0.9-5.6-2.5-7.8-4.6l2-4.1c2,1.9,4.5,3.4,7.1,4.3c2.9,1.1,6.1,1.7,9.2,1.7
		c4.4,0,7.7-0.8,9.9-2.4c2.1-1.4,3.3-3.8,3.3-6.3c0.1-1.8-0.6-3.5-1.8-4.7c-1.3-1.2-2.8-2.1-4.4-2.7c-2.4-0.8-4.8-1.5-7.3-2.1
		c-3-0.7-6-1.6-8.9-2.7c-2.2-0.8-4.1-2.2-5.7-4c-1.7-2-2.5-4.6-2.4-7.3c0-2.4,0.7-4.8,2-6.8c1.5-2.2,3.6-3.9,6.1-4.9
		c3.2-1.3,6.7-1.9,10.1-1.8c2.8,0,5.6,0.4,8.3,1.2c2.5,0.7,4.9,1.8,7,3.2l-1.8,4.2c-2-1.4-4.3-2.4-6.6-3.1c-2.2-0.7-4.6-1-6.9-1
		c-4.3,0-7.6,0.8-9.8,2.5c-2.1,1.5-3.3,3.9-3.3,6.4c-0.1,1.7,0.5,3.5,1.7,4.7c1.3,1.3,2.9,2.2,4.6,2.8c1.8,0.6,4.2,1.3,7.3,2.1
		c3,0.7,5.9,1.6,8.8,2.7c2.2,0.8,4.1,2.2,5.7,3.9c1.6,2,2.5,4.6,2.3,7.1c0,2.4-0.7,4.8-2,6.8c-1.5,2.2-3.7,3.9-6.1,4.9
		c-3.2,1.3-6.7,1.9-10.2,1.8C189.4,54.6,185.8,54,182.4,52.8z"/>
	<path class="st0" d="M232.2,51.3c-3.8-2.1-7-5.2-9.2-9c-2.3-3.9-3.4-8.3-3.4-12.9c-0.1-4.5,1.1-8.9,3.4-12.9c2.2-3.8,5.4-6.9,9.2-9
		c4.1-2.2,8.7-3.3,13.3-3.2c3.5,0,6.9,0.6,10.1,1.9c3,1.2,5.7,3,7.9,5.4l-3.3,3.3c-3.8-3.9-9.1-6-14.6-5.9c-3.7,0-7.4,0.9-10.6,2.7
		c-3.1,1.7-5.7,4.2-7.5,7.3c-1.8,3.2-2.8,6.8-2.7,10.4c-0.1,3.7,0.9,7.3,2.7,10.4s4.4,5.6,7.5,7.3c3.3,1.8,6.9,2.7,10.6,2.7
		c5.5,0.2,10.8-2,14.6-5.9l3.3,3.3c-2.2,2.4-4.9,4.2-7.9,5.4C248,55.6,239.5,55.1,232.2,51.3L232.2,51.3z"/>
	<path class="st0" d="M309.3,9.4c3.6,3.1,5.6,7.7,5.3,12.4c0.2,4.7-1.7,9.3-5.3,12.3c-3.6,3-8.5,4.5-14.8,4.5h-13.2v15.5H276V4.8
		h18.4C300.7,4.8,305.7,6.3,309.3,9.4z M305.5,30.8c2.6-2.2,4.1-5.6,3.9-9c0.2-3.5-1.2-6.9-3.9-9.2c-2.6-2.1-6.3-3.2-11.2-3.2h-13.1
		V34h13.1C299.2,34,303,32.9,305.5,30.8z"/>
	<path class="st0" d="M355.8,40.9h-27.6l-5.9,13.2h-5.4l22.6-49.3h5.1l22.5,49.3h-5.5L355.8,40.9z M353.9,36.7L342,10.2l-11.8,26.5
		H353.9z"/>
	<path class="st0" d="M23.2,58.4c-8.2-8.2,0-30.1,18.4-51.9c-3.5,3-7,6.1-10.4,9.6C6.2,41-6.3,68.9,3.2,78.3s37.4-2.9,62.4-27.8
		c3.4-3.5,6.6-7,9.5-10.5C53.3,58.4,31.4,66.5,23.2,58.4z"/>
	<path class="st0" d="M36.6,41.8c7.3-6.5,15.4-12.1,24-16.7c4.4-2.3,9.1-4,13.9-5c2.5-0.5,5-0.6,7.6-0.3c2.6,0.3,5.1,1.4,7.1,3.1
		c1,0.9,1.7,2.1,2.2,3.3c0.3,0.6,0.4,1.2,0.6,1.9s0.2,1.3,0.4,1.9c0.3,2.5,0.2,5.1-0.3,7.6c-1,4.9-2.7,9.5-5,13.9
		c-4.5,8.7-10.2,16.7-16.9,23.9c3-3.8,5.9-7.8,8.5-11.9s5-8.3,7.1-12.7c2.1-4.3,3.6-8.9,4.6-13.6c0.4-2.3,0.5-4.7,0.2-7
		c-0.1-0.6-0.2-1.1-0.4-1.7c-0.1-0.5-0.3-1-0.6-1.5c-0.4-1-1-1.9-1.7-2.7c-1.8-1.4-3.9-2.4-6.1-2.7c-2.3-0.3-4.7-0.3-7,0.2
		c-4.7,0.9-9.3,2.5-13.6,4.6c-4.4,2.1-8.6,4.5-12.7,7.1C44.5,36.1,40.5,38.9,36.6,41.8z"/>
	<path class="st0" d="M54,23.8c5.9-4.2,12.5-7.4,19.5-9.6c1.8-0.5,3.6-1,5.4-1.2c1.8-0.3,3.7-0.4,5.5-0.4c1.9,0.1,3.8,0.4,5.6,0.9
		c1.8,0.6,3.5,1.5,5,2.8c2.9,2.5,4.8,6,5.3,9.8c0.4,3.7,0.1,7.5-1,11c-2.1,7-5.4,13.5-9.8,19.3c1.8-3.1,3.5-6.3,4.9-9.6
		c1.5-3.2,2.6-6.6,3.5-10s1.1-6.9,0.7-10.4c-0.7-5.1-4.3-9.5-9.2-11.1c-1.6-0.5-3.3-0.8-5.1-0.9c-3.5-0.1-7,0.3-10.4,1.2
		c-3.5,0.9-6.9,2-10.1,3.5C60.3,20.5,57.1,22.1,54,23.8z"/>
	<path class="st0" d="M75.1,8.7c3.5-1.2,7.1-1.8,10.7-1.7c3.8,0,7.5,0.9,10.7,2.8c3.3,2,5.8,5,7.2,8.5c1.4,3.5,1.7,7.3,0.8,11
		c0.2-3.5-0.5-7.1-2-10.3c-1.5-3.1-3.9-5.7-6.8-7.6c-3-1.8-6.4-2.8-9.9-3.1C82.3,8,78.7,8.2,75.1,8.7z"/>
	<path class="st0" d="M89.8,2.8c2.4-0.4,4.8-0.3,7.2,0.3c2.4,0.6,4.6,1.7,6.6,3.2s3.5,3.5,4.6,5.7c0.5,1.1,1,2.2,1.3,3.4
		s0.4,2.4,0.5,3.6c-0.6-1.1-0.9-2.2-1.4-3.2c-0.5-1.1-1.1-2.1-1.7-3.1c-1.2-1.9-2.7-3.5-4.5-4.8c-1.8-1.4-3.7-2.5-5.9-3.3
		C94.4,3.7,92.1,3.1,89.8,2.8z"/>
	<path class="st0" d="M100.6,0.3c1.2-0.3,2.5-0.4,3.7-0.1c1.3,0.3,2.5,0.8,3.5,1.5c0.6,0.4,1.1,0.8,1.5,1.3s0.8,1,1.1,1.5
		c0.6,1.1,0.9,2.4,0.8,3.6c-0.6-1-1.3-1.9-2-2.8c-0.7-0.8-1.5-1.5-2.4-2.1C104.9,1.9,102.8,1,100.6,0.3z"/>
</g>
</svg>
