<?xml version="1.0" encoding="utf-8"?>
<!-- Generator: Adobe Illustrator 23.0.4, SVG Export Plug-In . SVG Version: 6.00 Build 0)  -->
<svg version="1.1" id="Layer_1" xmlns="http://www.w3.org/2000/svg" xmlns:xlink="http://www.w3.org/1999/xlink" x="0px" y="0px"
	 viewBox="0 0 792 610.4" style="enable-background:new 0 0 792 610.4;" xml:space="preserve">
<style type="text/css">
	.st0{fill:#BCB5B3;}
	.st1{fill:#3EBFB9;}
</style>
<g>
	<g>
		<polygon class="st0" points="792,310.4 792,309 490.1,611 491.5,611 		"/>
		<polygon class="st0" points="792,325.1 792,323.7 504.8,611 506.2,611 		"/>
		<polygon class="st0" points="792,339.8 792,338.4 519.4,611 520.8,611 		"/>
		<polygon class="st0" points="792,354.4 792,353 534.1,611 535.5,611 		"/>
		<polygon class="st0" points="792,369.1 792,367.7 548.7,611 550.1,611 		"/>
		<polygon class="st0" points="792,383.8 792,382.4 563.4,611 564.8,611 		"/>
		<polygon class="st0" points="792,398.4 792,397 578,611 579.4,611 		"/>
		<polygon class="st0" points="792,413.1 792,411.7 592.7,611 594.1,611 		"/>
		<polygon class="st0" points="792,427.8 792,426.4 607.4,611 608.8,611 		"/>
		<polygon class="st0" points="792,442.4 792,441 622,611 623.5,611 		"/>
		<polygon class="st0" points="792,457.1 792,455.7 636.7,611 638.2,611 		"/>
		<polygon class="st0" points="792,471.8 792,470.4 651.4,611 652.8,611 		"/>
	</g>
	<g>
		<polygon class="st1" points="733.7,14.2 734.3,14.2 734.3,9 739.5,9 739.5,8.3 734.3,8.3 734.3,3.1 733.7,3.1 733.7,8.4 
			728.4,8.4 728.4,9 733.7,9 		"/>
		<polygon class="st1" points="733.7,31.4 734.3,31.4 734.3,26.2 739.5,26.2 739.5,25.6 734.3,25.6 734.3,20.4 733.7,20.4 
			733.7,25.6 728.4,25.6 728.4,26.2 733.7,26.2 		"/>
		<polygon class="st1" points="733.7,48.7 734.3,48.7 734.3,43.5 739.5,43.5 739.5,42.9 734.3,42.9 734.3,37.7 733.7,37.7 
			733.7,42.9 728.4,42.9 728.4,43.5 733.7,43.5 		"/>
		<polygon class="st1" points="733.7,66 734.3,66 734.3,60.8 739.5,60.8 739.5,60.2 734.3,60.2 734.3,55 733.7,55 733.7,60.2 
			728.4,60.2 728.4,60.8 733.7,60.8 		"/>
		<polygon class="st1" points="733.7,83.3 734.3,83.3 734.3,78.1 739.5,78.1 739.5,77.5 734.3,77.5 734.3,72.3 733.7,72.3 
			733.7,77.5 728.4,77.5 728.4,78.1 733.7,78.1 		"/>
		<polygon class="st1" points="733.7,100.5 734.3,100.5 734.3,95.3 739.5,95.3 739.5,94.7 734.3,94.7 734.3,89.5 733.7,89.5 
			733.7,94.7 728.4,94.7 728.4,95.3 733.7,95.3 		"/>
		<polygon class="st1" points="733.7,117.8 734.3,117.8 734.3,112.6 739.5,112.6 739.5,112 734.3,112 734.3,106.8 733.7,106.8 
			733.7,112 728.4,112 728.4,112.6 733.7,112.6 		"/>
		<polygon class="st1" points="733.7,135.1 734.3,135.1 734.3,129.9 739.5,129.9 739.5,129.3 734.3,129.3 734.3,124.1 733.7,124.1 
			733.7,129.3 728.4,129.3 728.4,129.9 733.7,129.9 		"/>
		<polygon class="st1" points="733.7,152.4 734.3,152.4 734.3,147.2 739.5,147.2 739.5,146.6 734.3,146.6 734.3,141.4 733.7,141.4 
			733.7,146.6 728.4,146.6 728.4,147.2 733.7,147.2 		"/>
		<polygon class="st1" points="733.7,169.7 734.3,169.7 734.3,164.5 739.5,164.5 739.5,163.9 734.3,163.9 734.3,158.7 733.7,158.7 
			733.7,163.9 728.4,163.9 728.4,164.5 733.7,164.5 		"/>
		<polygon class="st1" points="733.7,186.9 734.3,186.9 734.3,181.7 739.5,181.7 739.5,181.1 734.3,181.1 734.3,175.9 733.7,175.9 
			733.7,181.1 728.4,181.1 728.4,181.7 733.7,181.7 		"/>
		<polygon class="st1" points="733.7,204.2 734.3,204.2 734.3,199 739.5,199 739.5,198.4 734.3,198.4 734.3,193.2 733.7,193.2 
			733.7,198.4 728.4,198.4 728.4,199 733.7,199 		"/>
		<polygon class="st1" points="733.7,221.5 734.3,221.5 734.3,216.3 739.5,216.3 739.5,215.7 734.3,215.7 734.3,210.5 733.7,210.5 
			733.7,215.7 728.4,215.7 728.4,216.3 733.7,216.3 		"/>
		<polygon class="st1" points="733.7,238.8 734.3,238.8 734.3,233.6 739.5,233.6 739.5,233 734.3,233 734.3,227.8 733.7,227.8 
			733.7,233 728.4,233 728.4,233.6 733.7,233.6 		"/>
		<polygon class="st1" points="733.7,256 734.3,256 734.3,250.8 739.5,250.8 739.5,250.2 734.3,250.2 734.3,245 733.7,245 
			733.7,250.2 728.4,250.2 728.4,250.8 733.7,250.8 		"/>
		<polygon class="st1" points="733.7,273.3 734.3,273.3 734.3,268.1 739.5,268.1 739.5,267.5 734.3,267.5 734.3,262.3 733.7,262.3 
			733.7,267.5 728.4,267.5 728.4,268.1 733.7,268.1 		"/>
		<polygon class="st1" points="733.7,290.6 734.3,290.6 734.3,285.4 739.5,285.4 739.5,284.8 734.3,284.8 734.3,279.6 733.7,279.6 
			733.7,284.8 728.4,284.8 728.4,285.4 733.7,285.4 		"/>
		<polygon class="st1" points="733.7,307.9 734.3,307.9 734.3,302.7 739.5,302.7 739.5,302.1 734.3,302.1 734.3,296.9 733.7,296.9 
			733.7,302.1 728.4,302.1 728.4,302.7 733.7,302.7 		"/>
		<polygon class="st1" points="733.7,325.1 734.3,325.1 734.3,319.9 739.5,319.9 739.5,319.3 734.3,319.3 734.3,314.1 733.7,314.1 
			733.7,319.3 728.4,319.3 728.4,319.9 733.7,319.9 		"/>
		<polygon class="st1" points="733.7,342.4 734.3,342.4 734.3,337.2 739.5,337.2 739.5,336.6 734.3,336.6 734.3,331.4 733.7,331.4 
			733.7,336.6 728.4,336.6 728.4,337.2 733.7,337.2 		"/>
		<polygon class="st1" points="733.7,359.7 734.3,359.7 734.3,354.5 739.5,354.5 739.5,353.9 734.3,353.9 734.3,348.7 733.7,348.7 
			733.7,353.9 728.4,353.9 728.4,354.5 733.7,354.5 		"/>
		<polygon class="st1" points="733.7,377 734.3,377 734.3,371.8 739.5,371.8 739.5,371.2 734.3,371.2 734.3,366 733.7,366 
			733.7,371.2 728.4,371.2 728.4,371.8 733.7,371.8 		"/>
		<polygon class="st1" points="733.7,394.3 734.3,394.3 734.3,389.1 739.5,389.1 739.5,388.5 734.3,388.5 734.3,383.3 733.7,383.3 
			733.7,388.5 728.4,388.5 728.4,389.1 733.7,389.1 		"/>
		<polygon class="st1" points="733.7,411.5 734.3,411.5 734.3,406.3 739.5,406.3 739.5,405.7 734.3,405.7 734.3,400.5 733.7,400.5 
			733.7,405.7 728.4,405.7 728.4,406.3 733.7,406.3 		"/>
		<polygon class="st1" points="733.7,428.8 734.3,428.8 734.3,423.6 739.5,423.6 739.5,423 734.3,423 734.3,417.8 733.7,417.8 
			733.7,423 728.4,423 728.4,423.6 733.7,423.6 		"/>
		<polygon class="st1" points="733.7,446.1 734.3,446.1 734.3,440.9 739.5,440.9 739.5,440.3 734.3,440.3 734.3,435.1 733.7,435.1 
			733.7,440.3 728.4,440.3 728.4,440.9 733.7,440.9 		"/>
		<polygon class="st1" points="733.7,463.4 734.3,463.4 734.3,458.2 739.5,458.2 739.5,457.6 734.3,457.6 734.3,452.4 733.7,452.4 
			733.7,457.6 728.4,457.6 728.4,458.2 733.7,458.2 		"/>
		<polygon class="st1" points="733.7,480.6 734.3,480.6 734.3,475.4 739.5,475.4 739.5,474.8 734.3,474.8 734.3,469.6 733.7,469.6 
			733.7,474.8 728.4,474.8 728.4,475.4 733.7,475.4 		"/>
		<polygon class="st1" points="733.7,497.9 734.3,497.9 734.3,492.7 739.5,492.7 739.5,492.1 734.3,492.1 734.3,486.9 733.7,486.9 
			733.7,492.1 728.4,492.1 728.4,492.7 733.7,492.7 		"/>
		<polygon class="st1" points="733.7,515.2 734.3,515.2 734.3,510 739.5,510 739.5,509.4 734.3,509.4 734.3,504.2 733.7,504.2 
			733.7,509.4 728.4,509.4 728.4,510 733.7,510 		"/>
		<polygon class="st1" points="733.7,532.5 734.3,532.5 734.3,527.3 739.5,527.3 739.5,526.7 734.3,526.7 734.3,521.5 733.7,521.5 
			733.7,526.7 728.4,526.7 728.4,527.3 733.7,527.3 		"/>
		<polygon class="st1" points="733.7,549.7 734.3,549.7 734.3,544.5 739.5,544.5 739.5,544 734.3,544 734.3,538.8 733.7,538.8 
			733.7,544 728.4,544 728.4,544.5 733.7,544.5 		"/>
		<polygon class="st1" points="733.7,567 734.3,567 734.3,561.8 739.5,561.8 739.5,561.2 734.3,561.2 734.3,556 733.7,556 
			733.7,561.2 728.4,561.2 728.4,561.8 733.7,561.8 		"/>
		<polygon class="st1" points="733.7,584.3 734.3,584.3 734.3,579.1 739.5,579.1 739.5,578.5 734.3,578.5 734.3,573.3 733.7,573.3 
			733.7,578.5 728.4,578.5 728.4,579.1 733.7,579.1 		"/>
		<polygon class="st1" points="733.7,601.6 734.3,601.6 734.3,596.4 739.5,596.4 739.5,595.8 734.3,595.8 734.3,590.6 733.7,590.6 
			733.7,595.8 728.4,595.8 728.4,596.4 733.7,596.4 		"/>
		<rect x="733.7" y="607.9" class="st1" width="0.6" height="3.1"/>
		<polygon class="st1" points="713,59.7 713.6,59.7 713.6,54.5 718.8,54.5 718.8,53.9 713.6,53.9 713.6,48.7 713,48.7 713,53.9 
			707.7,53.9 707.7,54.5 713,54.5 		"/>
		<polygon class="st1" points="713,77 713.6,77 713.6,71.8 718.8,71.8 718.8,71.2 713.6,71.2 713.6,66 713,66 713,71.2 707.7,71.2 
			707.7,71.8 713,71.8 		"/>
		<polygon class="st1" points="713,94.2 713.6,94.2 713.6,89 718.8,89 718.8,88.4 713.6,88.4 713.6,83.2 713,83.2 713,88.4 
			707.7,88.4 707.7,89 713,89 		"/>
		<polygon class="st1" points="713,111.5 713.6,111.5 713.6,106.3 718.8,106.3 718.8,105.7 713.6,105.7 713.6,100.5 713,100.5 
			713,105.7 707.7,105.7 707.7,106.3 713,106.3 		"/>
		<polygon class="st1" points="713,128.8 713.6,128.8 713.6,123.6 718.8,123.6 718.8,123 713.6,123 713.6,117.8 713,117.8 713,123 
			707.7,123 707.7,123.6 713,123.6 		"/>
		<polygon class="st1" points="713,146.1 713.6,146.1 713.6,140.9 718.8,140.9 718.8,140.3 713.6,140.3 713.6,135.1 713,135.1 
			713,140.3 707.7,140.3 707.7,140.9 713,140.9 		"/>
		<polygon class="st1" points="713,163.3 713.6,163.3 713.6,158.1 718.8,158.1 718.8,157.5 713.6,157.5 713.6,152.3 713,152.3 
			713,157.5 707.7,157.5 707.7,158.1 713,158.1 		"/>
		<polygon class="st1" points="713,180.6 713.6,180.6 713.6,175.4 718.8,175.4 718.8,174.8 713.6,174.8 713.6,169.6 713,169.6 
			713,174.8 707.7,174.8 707.7,175.4 713,175.4 		"/>
		<polygon class="st1" points="713,197.9 713.6,197.9 713.6,192.7 718.8,192.7 718.8,192.1 713.6,192.1 713.6,186.9 713,186.9 
			713,192.1 707.7,192.1 707.7,192.7 713,192.7 		"/>
		<polygon class="st1" points="713,215.2 713.6,215.2 713.6,210 718.8,210 718.8,209.4 713.6,209.4 713.6,204.2 713,204.2 
			713,209.4 707.7,209.4 707.7,210 713,210 		"/>
		<polygon class="st1" points="713,232.5 713.6,232.5 713.6,227.3 718.8,227.3 718.8,226.7 713.6,226.7 713.6,221.5 713,221.5 
			713,226.7 707.7,226.7 707.7,227.3 713,227.3 		"/>
		<polygon class="st1" points="713,249.7 713.6,249.7 713.6,244.5 718.8,244.5 718.8,244 713.6,244 713.6,238.8 713,238.8 713,244 
			707.7,244 707.7,244.5 713,244.5 		"/>
		<polygon class="st1" points="713,267 713.6,267 713.6,261.8 718.8,261.8 718.8,261.2 713.6,261.2 713.6,256 713,256 713,261.2 
			707.7,261.2 707.7,261.8 713,261.8 		"/>
		<polygon class="st1" points="713,284.3 713.6,284.3 713.6,279.1 718.8,279.1 718.8,278.5 713.6,278.5 713.6,273.3 713,273.3 
			713,278.5 707.7,278.5 707.7,279.1 713,279.1 		"/>
		<polygon class="st1" points="713,301.6 713.6,301.6 713.6,296.4 718.8,296.4 718.8,295.8 713.6,295.8 713.6,290.6 713,290.6 
			713,295.8 707.7,295.8 707.7,296.4 713,296.4 		"/>
		<polygon class="st1" points="713,318.8 713.6,318.8 713.6,313.6 718.8,313.6 718.8,313 713.6,313 713.6,307.8 713,307.8 713,313 
			707.7,313 707.7,313.6 713,313.6 		"/>
		<polygon class="st1" points="713,336.1 713.6,336.1 713.6,330.9 718.8,330.9 718.8,330.3 713.6,330.3 713.6,325.1 713,325.1 
			713,330.3 707.7,330.3 707.7,330.9 713,330.9 		"/>
		<polygon class="st1" points="713,353.4 713.6,353.4 713.6,348.2 718.8,348.2 718.8,347.6 713.6,347.6 713.6,342.4 713,342.4 
			713,347.6 707.7,347.6 707.7,348.2 713,348.2 		"/>
		<polygon class="st1" points="713,370.7 713.6,370.7 713.6,365.5 718.8,365.5 718.8,364.9 713.6,364.9 713.6,359.7 713,359.7 
			713,364.9 707.7,364.9 707.7,365.5 713,365.5 		"/>
		<polygon class="st1" points="713,388 713.6,388 713.6,382.8 718.8,382.8 718.8,382.2 713.6,382.2 713.6,377 713,377 713,382.2 
			707.7,382.2 707.7,382.8 713,382.8 		"/>
		<polygon class="st1" points="713,405.2 713.6,405.2 713.6,400 718.8,400 718.8,399.4 713.6,399.4 713.6,394.2 713,394.2 
			713,399.4 707.7,399.4 707.7,400 713,400 		"/>
		<polygon class="st1" points="713,422.5 713.6,422.5 713.6,417.3 718.8,417.3 718.8,416.7 713.6,416.7 713.6,411.5 713,411.5 
			713,416.7 707.7,416.7 707.7,417.3 713,417.3 		"/>
		<polygon class="st1" points="713,439.8 713.6,439.8 713.6,434.6 718.8,434.6 718.8,434 713.6,434 713.6,428.8 713,428.8 713,434 
			707.7,434 707.7,434.6 713,434.6 		"/>
		<polygon class="st1" points="713,457.1 713.6,457.1 713.6,451.9 718.8,451.9 718.8,451.2 713.6,451.2 713.6,446 713,446 
			713,451.3 707.7,451.3 707.7,451.9 713,451.9 		"/>
		<polygon class="st1" points="713,474.3 713.6,474.3 713.6,469.1 718.8,469.1 718.8,468.5 713.6,468.5 713.6,463.3 713,463.3 
			713,468.5 707.7,468.5 707.7,469.1 713,469.1 		"/>
		<polygon class="st1" points="713,491.6 713.6,491.6 713.6,486.4 718.8,486.4 718.8,485.8 713.6,485.8 713.6,480.6 713,480.6 
			713,485.8 707.7,485.8 707.7,486.4 713,486.4 		"/>
		<polygon class="st1" points="713,508.9 713.6,508.9 713.6,503.7 718.8,503.7 718.8,503.1 713.6,503.1 713.6,497.9 713,497.9 
			713,503.1 707.7,503.1 707.7,503.7 713,503.7 		"/>
		<polygon class="st1" points="713,526.2 713.6,526.2 713.6,521 718.8,521 718.8,520.4 713.6,520.4 713.6,515.2 713,515.2 
			713,520.4 707.7,520.4 707.7,521 713,521 		"/>
		<polygon class="st1" points="713,543.4 713.6,543.4 713.6,538.2 718.8,538.2 718.8,537.6 713.6,537.6 713.6,532.4 713,532.4 
			713,537.6 707.7,537.6 707.7,538.2 713,538.2 		"/>
		<polygon class="st1" points="713,560.7 713.6,560.7 713.6,555.5 718.8,555.5 718.8,554.9 713.6,554.9 713.6,549.7 713,549.7 
			713,554.9 707.7,554.9 707.7,555.5 713,555.5 		"/>
		<polygon class="st1" points="713,578 713.6,578 713.6,572.8 718.8,572.8 718.8,572.2 713.6,572.2 713.6,567 713,567 713,572.2 
			707.7,572.2 707.7,572.8 713,572.8 		"/>
		<polygon class="st1" points="713,595.3 713.6,595.3 713.6,590.1 718.8,590.1 718.8,589.5 713.6,589.5 713.6,584.3 713,584.3 
			713,589.5 707.7,589.5 707.7,590.1 713,590.1 		"/>
		<polygon class="st1" points="713.6,607.4 718.8,607.4 718.8,606.8 713.6,606.8 713.6,601.6 713,601.6 713,606.8 707.7,606.8 
			707.7,607.4 713,607.4 713,611 713.6,611 		"/>
		<polygon class="st1" points="692.4,71.1 693,71.1 693,65.9 698.2,65.9 698.2,65.2 693,65.2 693,60 692.4,60 692.4,65.3 
			687.1,65.3 687.1,65.9 692.4,65.9 		"/>
		<polygon class="st1" points="692.4,88.3 693,88.3 693,83.1 698.2,83.1 698.2,82.5 693,82.5 693,77.3 692.4,77.3 692.4,82.5 
			687.1,82.5 687.1,83.1 692.4,83.1 		"/>
		<polygon class="st1" points="692.4,105.6 693,105.6 693,100.4 698.2,100.4 698.2,99.8 693,99.8 693,94.6 692.4,94.6 692.4,99.8 
			687.1,99.8 687.1,100.4 692.4,100.4 		"/>
		<polygon class="st1" points="692.4,122.9 693,122.9 693,117.7 698.2,117.7 698.2,117.1 693,117.1 693,111.9 692.4,111.9 
			692.4,117.1 687.1,117.1 687.1,117.7 692.4,117.7 		"/>
		<polygon class="st1" points="692.4,140.2 693,140.2 693,135 698.2,135 698.2,134.4 693,134.4 693,129.2 692.4,129.2 692.4,134.4 
			687.1,134.4 687.1,135 692.4,135 		"/>
		<polygon class="st1" points="692.4,157.5 693,157.5 693,152.3 698.2,152.3 698.2,151.7 693,151.7 693,146.5 692.4,146.5 
			692.4,151.7 687.1,151.7 687.1,152.3 692.4,152.3 		"/>
		<polygon class="st1" points="692.4,174.7 693,174.7 693,169.5 698.2,169.5 698.2,168.9 693,168.9 693,163.7 692.4,163.7 
			692.4,168.9 687.1,168.9 687.1,169.5 692.4,169.5 		"/>
		<polygon class="st1" points="692.4,192 693,192 693,186.8 698.2,186.8 698.2,186.2 693,186.2 693,181 692.4,181 692.4,186.2 
			687.1,186.2 687.1,186.8 692.4,186.8 		"/>
		<polygon class="st1" points="692.4,209.3 693,209.3 693,204.1 698.2,204.1 698.2,203.5 693,203.5 693,198.3 692.4,198.3 
			692.4,203.5 687.1,203.5 687.1,204.1 692.4,204.1 		"/>
		<polygon class="st1" points="692.4,226.6 693,226.6 693,221.4 698.2,221.4 698.2,220.8 693,220.8 693,215.6 692.4,215.6 
			692.4,220.8 687.1,220.8 687.1,221.4 692.4,221.4 		"/>
		<polygon class="st1" points="692.4,243.8 693,243.8 693,238.6 698.2,238.6 698.2,238 693,238 693,232.8 692.4,232.8 692.4,238 
			687.1,238 687.1,238.6 692.4,238.6 		"/>
		<polygon class="st1" points="692.4,261.1 693,261.1 693,255.9 698.2,255.9 698.2,255.3 693,255.3 693,250.1 692.4,250.1 
			692.4,255.3 687.1,255.3 687.1,255.9 692.4,255.9 		"/>
		<polygon class="st1" points="692.4,278.4 693,278.4 693,273.2 698.2,273.2 698.2,272.6 693,272.6 693,267.4 692.4,267.4 
			692.4,272.6 687.1,272.6 687.1,273.2 692.4,273.2 		"/>
		<polygon class="st1" points="692.4,295.7 693,295.7 693,290.5 698.2,290.5 698.2,289.9 693,289.9 693,284.7 692.4,284.7 
			692.4,289.9 687.1,289.9 687.1,290.5 692.4,290.5 		"/>
		<polygon class="st1" points="692.4,312.9 693,312.9 693,307.7 698.2,307.7 698.2,307.1 693,307.1 693,301.9 692.4,301.9 
			692.4,307.1 687.1,307.1 687.1,307.7 692.4,307.7 		"/>
		<polygon class="st1" points="692.4,330.2 693,330.2 693,325 698.2,325 698.2,324.4 693,324.4 693,319.2 692.4,319.2 692.4,324.4 
			687.1,324.4 687.1,325 692.4,325 		"/>
		<polygon class="st1" points="692.4,347.5 693,347.5 693,342.3 698.2,342.3 698.2,341.7 693,341.7 693,336.5 692.4,336.5 
			692.4,341.7 687.1,341.7 687.1,342.3 692.4,342.3 		"/>
		<polygon class="st1" points="692.4,364.8 693,364.8 693,359.6 698.2,359.6 698.2,359 693,359 693,353.8 692.4,353.8 692.4,359 
			687.1,359 687.1,359.6 692.4,359.6 		"/>
		<polygon class="st1" points="692.4,382.1 693,382.1 693,376.9 698.2,376.9 698.2,376.2 693,376.2 693,371 692.4,371 692.4,376.3 
			687.1,376.3 687.1,376.9 692.4,376.9 		"/>
		<polygon class="st1" points="692.4,399.3 693,399.3 693,394.1 698.2,394.1 698.2,393.5 693,393.5 693,388.3 692.4,388.3 
			692.4,393.5 687.1,393.5 687.1,394.1 692.4,394.1 		"/>
		<polygon class="st1" points="692.4,416.6 693,416.6 693,411.4 698.2,411.4 698.2,410.8 693,410.8 693,405.6 692.4,405.6 
			692.4,410.8 687.1,410.8 687.1,411.4 692.4,411.4 		"/>
		<polygon class="st1" points="692.4,433.9 693,433.9 693,428.7 698.2,428.7 698.2,428.1 693,428.1 693,422.9 692.4,422.9 
			692.4,428.1 687.1,428.1 687.1,428.7 692.4,428.7 		"/>
		<polygon class="st1" points="692.4,451.2 693,451.2 693,446 698.2,446 698.2,445.4 693,445.4 693,440.2 692.4,440.2 692.4,445.4 
			687.1,445.4 687.1,446 692.4,446 		"/>
		<polygon class="st1" points="692.4,468.4 693,468.4 693,463.2 698.2,463.2 698.2,462.6 693,462.6 693,457.4 692.4,457.4 
			692.4,462.6 687.1,462.6 687.1,463.2 692.4,463.2 		"/>
		<polygon class="st1" points="692.4,485.7 693,485.7 693,480.5 698.2,480.5 698.2,479.9 693,479.9 693,474.7 692.4,474.7 
			692.4,479.9 687.1,479.9 687.1,480.5 692.4,480.5 		"/>
		<polygon class="st1" points="692.4,503 693,503 693,497.8 698.2,497.8 698.2,497.2 693,497.2 693,492 692.4,492 692.4,497.2 
			687.1,497.2 687.1,497.8 692.4,497.8 		"/>
		<polygon class="st1" points="692.4,520.3 693,520.3 693,515.1 698.2,515.1 698.2,514.5 693,514.5 693,509.3 692.4,509.3 
			692.4,514.5 687.1,514.5 687.1,515.1 692.4,515.1 		"/>
		<polygon class="st1" points="692.4,537.5 693,537.5 693,532.3 698.2,532.3 698.2,531.7 693,531.7 693,526.5 692.4,526.5 
			692.4,531.7 687.1,531.7 687.1,532.3 692.4,532.3 		"/>
		<polygon class="st1" points="692.4,554.8 693,554.8 693,549.6 698.2,549.6 698.2,549 693,549 693,543.8 692.4,543.8 692.4,549 
			687.1,549 687.1,549.6 692.4,549.6 		"/>
		<polygon class="st1" points="692.4,572.1 693,572.1 693,566.9 698.2,566.9 698.2,566.3 693,566.3 693,561.1 692.4,561.1 
			692.4,566.3 687.1,566.3 687.1,566.9 692.4,566.9 		"/>
		<polygon class="st1" points="692.4,589.4 693,589.4 693,584.2 698.2,584.2 698.2,583.6 693,583.6 693,578.4 692.4,578.4 
			692.4,583.6 687.1,583.6 687.1,584.2 692.4,584.2 		"/>
		<polygon class="st1" points="692.4,606.7 693,606.7 693,601.5 698.2,601.5 698.2,600.9 693,600.9 693,595.7 692.4,595.7 
			692.4,600.9 687.1,600.9 687.1,601.5 692.4,601.5 		"/>
		<polygon class="st1" points="671.7,117.7 672.3,117.7 672.3,112.5 677.5,112.5 677.5,112 672.3,112 672.3,106.8 671.7,106.8 
			671.7,112 666.4,112 666.4,112.5 671.7,112.5 		"/>
		<polygon class="st1" points="671.7,135 672.3,135 672.3,129.8 677.5,129.8 677.5,129.2 672.3,129.2 672.3,124 671.7,124 
			671.7,129.2 666.4,129.2 666.4,129.8 671.7,129.8 		"/>
		<polygon class="st1" points="671.7,152.3 672.3,152.3 672.3,147.1 677.5,147.1 677.5,146.5 672.3,146.5 672.3,141.3 671.7,141.3 
			671.7,146.5 666.4,146.5 666.4,147.1 671.7,147.1 		"/>
		<polygon class="st1" points="671.7,169.6 672.3,169.6 672.3,164.4 677.5,164.4 677.5,163.8 672.3,163.8 672.3,158.6 671.7,158.6 
			671.7,163.8 666.4,163.8 666.4,164.4 671.7,164.4 		"/>
		<polygon class="st1" points="671.7,186.8 672.3,186.8 672.3,181.6 677.5,181.6 677.5,181 672.3,181 672.3,175.8 671.7,175.8 
			671.7,181 666.4,181 666.4,181.6 671.7,181.6 		"/>
		<polygon class="st1" points="671.7,204.1 672.3,204.1 672.3,198.9 677.5,198.9 677.5,198.3 672.3,198.3 672.3,193.1 671.7,193.1 
			671.7,198.3 666.4,198.3 666.4,198.9 671.7,198.9 		"/>
		<polygon class="st1" points="671.7,221.4 672.3,221.4 672.3,216.2 677.5,216.2 677.5,215.6 672.3,215.6 672.3,210.4 671.7,210.4 
			671.7,215.6 666.4,215.6 666.4,216.2 671.7,216.2 		"/>
		<polygon class="st1" points="671.7,238.7 672.3,238.7 672.3,233.5 677.5,233.5 677.5,232.9 672.3,232.9 672.3,227.7 671.7,227.7 
			671.7,232.9 666.4,232.9 666.4,233.5 671.7,233.5 		"/>
		<polygon class="st1" points="671.7,256 672.3,256 672.3,250.8 677.5,250.8 677.5,250.2 672.3,250.2 672.3,245 671.7,245 
			671.7,250.2 666.4,250.2 666.4,250.8 671.7,250.8 		"/>
		<polygon class="st1" points="671.7,273.2 672.3,273.2 672.3,268 677.5,268 677.5,267.4 672.3,267.4 672.3,262.2 671.7,262.2 
			671.7,267.4 666.4,267.4 666.4,268 671.7,268 		"/>
		<polygon class="st1" points="671.7,290.5 672.3,290.5 672.3,285.3 677.5,285.3 677.5,284.7 672.3,284.7 672.3,279.5 671.7,279.5 
			671.7,284.7 666.4,284.7 666.4,285.3 671.7,285.3 		"/>
		<polygon class="st1" points="671.7,307.8 672.3,307.8 672.3,302.6 677.5,302.6 677.5,302 672.3,302 672.3,296.8 671.7,296.8 
			671.7,302 666.4,302 666.4,302.6 671.7,302.6 		"/>
		<polygon class="st1" points="671.7,325.1 672.3,325.1 672.3,319.9 677.5,319.9 677.5,319.2 672.3,319.2 672.3,314 671.7,314 
			671.7,319.3 666.4,319.3 666.4,319.9 671.7,319.9 		"/>
		<polygon class="st1" points="671.7,342.3 672.3,342.3 672.3,337.1 677.5,337.1 677.5,336.5 672.3,336.5 672.3,331.3 671.7,331.3 
			671.7,336.5 666.4,336.5 666.4,337.1 671.7,337.1 		"/>
		<polygon class="st1" points="671.7,359.6 672.3,359.6 672.3,354.4 677.5,354.4 677.5,353.8 672.3,353.8 672.3,348.6 671.7,348.6 
			671.7,353.8 666.4,353.8 666.4,354.4 671.7,354.4 		"/>
		<polygon class="st1" points="671.7,376.9 672.3,376.9 672.3,371.7 677.5,371.7 677.5,371.1 672.3,371.1 672.3,365.9 671.7,365.9 
			671.7,371.1 666.4,371.1 666.4,371.7 671.7,371.7 		"/>
		<polygon class="st1" points="671.7,394.2 672.3,394.2 672.3,389 677.5,389 677.5,388.4 672.3,388.4 672.3,383.2 671.7,383.2 
			671.7,388.4 666.4,388.4 666.4,389 671.7,389 		"/>
		<polygon class="st1" points="671.7,411.4 672.3,411.4 672.3,406.2 677.5,406.2 677.5,405.6 672.3,405.6 672.3,400.4 671.7,400.4 
			671.7,405.6 666.4,405.6 666.4,406.2 671.7,406.2 		"/>
		<polygon class="st1" points="671.7,428.7 672.3,428.7 672.3,423.5 677.5,423.5 677.5,422.9 672.3,422.9 672.3,417.7 671.7,417.7 
			671.7,422.9 666.4,422.9 666.4,423.5 671.7,423.5 		"/>
		<polygon class="st1" points="671.7,446 672.3,446 672.3,440.8 677.5,440.8 677.5,440.2 672.3,440.2 672.3,435 671.7,435 
			671.7,440.2 666.4,440.2 666.4,440.8 671.7,440.8 		"/>
		<polygon class="st1" points="671.7,463.3 672.3,463.3 672.3,458.1 677.5,458.1 677.5,457.5 672.3,457.5 672.3,452.3 671.7,452.3 
			671.7,457.5 666.4,457.5 666.4,458.1 671.7,458.1 		"/>
		<polygon class="st1" points="671.7,480.6 672.3,480.6 672.3,475.4 677.5,475.4 677.5,474.8 672.3,474.8 672.3,469.6 671.7,469.6 
			671.7,474.8 666.4,474.8 666.4,475.4 671.7,475.4 		"/>
		<polygon class="st1" points="671.7,497.8 672.3,497.8 672.3,492.6 677.5,492.6 677.5,492 672.3,492 672.3,486.8 671.7,486.8 
			671.7,492 666.4,492 666.4,492.6 671.7,492.6 		"/>
		<polygon class="st1" points="671.7,515.1 672.3,515.1 672.3,509.9 677.5,509.9 677.5,509.3 672.3,509.3 672.3,504.1 671.7,504.1 
			671.7,509.3 666.4,509.3 666.4,509.9 671.7,509.9 		"/>
		<polygon class="st1" points="671.7,532.4 672.3,532.4 672.3,527.2 677.5,527.2 677.5,526.6 672.3,526.6 672.3,521.4 671.7,521.4 
			671.7,526.6 666.4,526.6 666.4,527.2 671.7,527.2 		"/>
		<polygon class="st1" points="671.7,549.7 672.3,549.7 672.3,544.5 677.5,544.5 677.5,543.9 672.3,543.9 672.3,538.7 671.7,538.7 
			671.7,543.9 666.4,543.9 666.4,544.5 671.7,544.5 		"/>
		<polygon class="st1" points="671.7,566.9 672.3,566.9 672.3,561.7 677.5,561.7 677.5,561.1 672.3,561.1 672.3,555.9 671.7,555.9 
			671.7,561.1 666.4,561.1 666.4,561.7 671.7,561.7 		"/>
		<polygon class="st1" points="671.7,584.2 672.3,584.2 672.3,579 677.5,579 677.5,578.4 672.3,578.4 672.3,573.2 671.7,573.2 
			671.7,578.4 666.4,578.4 666.4,579 671.7,579 		"/>
		<polygon class="st1" points="671.7,601.5 672.3,601.5 672.3,596.3 677.5,596.3 677.5,595.7 672.3,595.7 672.3,590.5 671.7,590.5 
			671.7,595.7 666.4,595.7 666.4,596.3 671.7,596.3 		"/>
		<rect x="671.7" y="607.8" class="st1" width="0.6" height="3.2"/>
		<rect x="713" y="611" class="st1" width="0.6" height="1.6"/>
	</g>
</g>
</svg>
