<?xml version="1.0" encoding="utf-8"?>
<!-- Generator: Adobe Illustrator 23.0.3, SVG Export Plug-In . SVG Version: 6.00 Build 0)  -->
<svg version="1.1" id="Layer_1" xmlns="http://www.w3.org/2000/svg" xmlns:xlink="http://www.w3.org/1999/xlink" x="0px" y="0px"
	 viewBox="0 0 94.7 612" style="enable-background:new 0 0 94.7 612;" xml:space="preserve">
<style type="text/css">
	.st0{fill:#A7A09D;}
</style>
<g>
	<polygon class="st0" points="67.2,17.2 67.2,13.5 66.8,13.5 66.8,17.2 63.1,17.2 63.1,17.6 66.8,17.6 66.8,21.2 67.2,21.2 
		67.2,17.6 70.8,17.6 70.8,17.2 	"/>
	<polygon class="st0" points="67.2,25.5 66.8,25.5 66.8,29.2 63.1,29.2 63.1,29.6 66.8,29.6 66.8,33.2 67.2,33.2 67.2,29.6 
		70.8,29.6 70.8,29.2 67.2,29.2 	"/>
	<polygon class="st0" points="67.2,37.5 66.8,37.5 66.8,41.2 63.1,41.2 63.1,41.6 66.8,41.6 66.8,45.2 67.2,45.2 67.2,41.6 
		70.8,41.6 70.8,41.2 67.2,41.2 	"/>
	<polygon class="st0" points="67.2,49.6 66.8,49.6 66.8,53.3 63.1,53.3 63.1,53.7 66.8,53.7 66.8,57.3 67.2,57.3 67.2,53.7 
		70.8,53.7 70.8,53.3 67.2,53.3 	"/>
	<polygon class="st0" points="67.2,61.6 66.8,61.6 66.8,65.3 63.1,65.3 63.1,65.7 66.8,65.7 66.8,69.3 67.2,69.3 67.2,65.7 
		70.8,65.7 70.8,65.3 67.2,65.3 	"/>
	<polygon class="st0" points="67.2,73.7 66.8,73.7 66.8,77.4 63.1,77.4 63.1,77.8 66.8,77.8 66.8,81.4 67.2,81.4 67.2,77.8 
		70.8,77.8 70.8,77.4 67.2,77.4 	"/>
	<polygon class="st0" points="67.2,85.7 66.8,85.7 66.8,89.4 63.1,89.4 63.1,89.8 66.8,89.8 66.8,93.4 67.2,93.4 67.2,89.8 
		70.8,89.8 70.8,89.4 67.2,89.4 	"/>
	<polygon class="st0" points="67.2,97.8 66.8,97.8 66.8,101.5 63.1,101.5 63.1,101.9 66.8,101.9 66.8,105.5 67.2,105.5 67.2,101.9 
		70.8,101.9 70.8,101.5 67.2,101.5 	"/>
	<polygon class="st0" points="67.2,109.8 66.8,109.8 66.8,113.5 63.1,113.5 63.1,113.9 66.8,113.9 66.8,117.5 67.2,117.5 
		67.2,113.9 70.8,113.9 70.8,113.5 67.2,113.5 	"/>
	<polygon class="st0" points="67.2,121.9 66.8,121.9 66.8,125.6 63.1,125.6 63.1,126 66.8,126 66.8,129.6 67.2,129.6 67.2,126 
		70.8,126 70.8,125.6 67.2,125.6 	"/>
	<polygon class="st0" points="67.2,134 66.8,134 66.8,137.6 63.1,137.6 63.1,138 66.8,138 66.8,141.6 67.2,141.6 67.2,138 70.8,138 
		70.8,137.7 67.2,137.7 	"/>
	<polygon class="st0" points="67.2,146 66.8,146 66.8,149.7 63.1,149.7 63.1,150.1 66.8,150.1 66.8,153.7 67.2,153.7 67.2,150.1 
		70.8,150.1 70.8,149.7 67.2,149.7 	"/>
	<polygon class="st0" points="67.2,158 66.8,158 66.8,161.7 63.1,161.7 63.1,162.1 66.8,162.1 66.8,165.7 67.2,165.7 67.2,162.1 
		70.8,162.1 70.8,161.7 67.2,161.7 	"/>
	<polygon class="st0" points="67.2,170.1 66.8,170.1 66.8,173.8 63.1,173.8 63.1,174.2 66.8,174.2 66.8,177.8 67.2,177.8 
		67.2,174.2 70.8,174.2 70.8,173.8 67.2,173.8 	"/>
	<polygon class="st0" points="67.2,182.1 66.8,182.1 66.8,185.8 63.1,185.8 63.1,186.2 66.8,186.2 66.8,189.8 67.2,189.8 
		67.2,186.2 70.8,186.2 70.8,185.8 67.2,185.8 	"/>
	<polygon class="st0" points="67.2,194.2 66.8,194.2 66.8,197.9 63.1,197.9 63.1,198.3 66.8,198.3 66.8,201.9 67.2,201.9 
		67.2,198.3 70.8,198.3 70.8,197.9 67.2,197.9 	"/>
	<polygon class="st0" points="67.2,206.2 66.8,206.2 66.8,209.9 63.1,209.9 63.1,210.3 66.8,210.3 66.8,213.9 67.2,213.9 
		67.2,210.3 70.8,210.3 70.8,209.9 67.2,209.9 	"/>
	<polygon class="st0" points="67.2,218.3 66.8,218.3 66.8,222 63.1,222 63.1,222.4 66.8,222.4 66.8,226 67.2,226 67.2,222.4 
		70.8,222.4 70.8,222 67.2,222 	"/>
	<polygon class="st0" points="67.2,230.3 66.8,230.3 66.8,234 63.1,234 63.1,234.4 66.8,234.4 66.8,238 67.2,238 67.2,234.4 
		70.8,234.4 70.8,234 67.2,234 	"/>
	<polygon class="st0" points="67.2,242.3 66.8,242.3 66.8,246 63.1,246 63.1,246.5 66.8,246.5 66.8,250.1 67.2,250.1 67.2,246.5 
		70.8,246.5 70.8,246 67.2,246 	"/>
	<polygon class="st0" points="67.2,254.4 66.8,254.4 66.8,258.1 63.1,258.1 63.1,258.5 66.8,258.5 66.8,262.1 67.2,262.1 
		67.2,258.5 70.8,258.5 70.8,258.1 67.2,258.1 	"/>
	<polygon class="st0" points="67.2,266.4 66.8,266.4 66.8,270.1 63.1,270.1 63.1,270.5 66.8,270.5 66.8,274.1 67.2,274.1 
		67.2,270.5 70.8,270.5 70.8,270.1 67.2,270.1 	"/>
	<polygon class="st0" points="67.2,278.5 66.8,278.5 66.8,282.2 63.1,282.2 63.1,282.6 66.8,282.6 66.8,286.2 67.2,286.2 
		67.2,282.6 70.8,282.6 70.8,282.2 67.2,282.2 	"/>
	<polygon class="st0" points="67.2,290.5 66.8,290.5 66.8,294.2 63.1,294.2 63.1,294.6 66.8,294.6 66.8,298.2 67.2,298.2 
		67.2,294.6 70.8,294.6 70.8,294.2 67.2,294.2 	"/>
	<polygon class="st0" points="67.2,302.6 66.8,302.6 66.8,306.3 63.1,306.3 63.1,306.7 66.8,306.7 66.8,310.3 67.2,310.3 
		67.2,306.7 70.8,306.7 70.8,306.3 67.2,306.3 	"/>
	<polygon class="st0" points="67.2,314.6 66.8,314.6 66.8,318.3 63.1,318.3 63.1,318.7 66.8,318.7 66.8,322.3 67.2,322.3 
		67.2,318.7 70.8,318.7 70.8,318.3 67.2,318.3 	"/>
	<polygon class="st0" points="67.2,326.7 66.8,326.7 66.8,330.4 63.1,330.4 63.1,330.8 66.8,330.8 66.8,334.4 67.2,334.4 
		67.2,330.8 70.8,330.8 70.8,330.4 67.2,330.4 	"/>
	<polygon class="st0" points="67.2,338.7 66.8,338.7 66.8,342.4 63.1,342.4 63.1,342.8 66.8,342.8 66.8,346.4 67.2,346.4 
		67.2,342.8 70.8,342.8 70.8,342.4 67.2,342.4 	"/>
	<polygon class="st0" points="67.2,350.8 66.8,350.8 66.8,354.5 63.1,354.5 63.1,354.9 66.8,354.9 66.8,358.5 67.2,358.5 
		67.2,354.9 70.8,354.9 70.8,354.5 67.2,354.5 	"/>
	<polygon class="st0" points="67.2,362.8 66.8,362.8 66.8,366.5 63.1,366.5 63.1,366.9 66.8,366.9 66.8,370.5 67.2,370.5 
		67.2,366.9 70.8,366.9 70.8,366.5 67.2,366.5 	"/>
	<polygon class="st0" points="67.2,374.9 66.8,374.9 66.8,378.6 63.1,378.6 63.1,379 66.8,379 66.8,382.6 67.2,382.6 67.2,379 
		70.8,379 70.8,378.6 67.2,378.6 	"/>
	<polygon class="st0" points="67.2,387 66.8,387 66.8,390.6 63.1,390.6 63.1,391 66.8,391 66.8,394.6 67.2,394.6 67.2,391 70.8,391 
		70.8,390.7 67.2,390.7 	"/>
	<polygon class="st0" points="67.2,399 66.8,399 66.8,402.7 63.1,402.7 63.1,403.1 66.8,403.1 66.8,406.7 67.2,406.7 67.2,403.1 
		70.8,403.1 70.8,402.7 67.2,402.7 	"/>
	<polygon class="st0" points="67.2,411 66.8,411 66.8,414.7 63.1,414.7 63.1,415.1 66.8,415.1 66.8,418.7 67.2,418.7 67.2,415.1 
		70.8,415.1 70.8,414.7 67.2,414.7 	"/>
	<polygon class="st0" points="67.2,423.1 66.8,423.1 66.8,426.8 63.1,426.8 63.1,427.2 66.8,427.2 66.8,430.8 67.2,430.8 
		67.2,427.2 70.8,427.2 70.8,426.8 67.2,426.8 	"/>
	<polygon class="st0" points="67.2,435.1 66.8,435.1 66.8,438.8 63.1,438.8 63.1,439.2 66.8,439.2 66.8,442.8 67.2,442.8 
		67.2,439.2 70.8,439.2 70.8,438.8 67.2,438.8 	"/>
	<polygon class="st0" points="67.2,447.2 66.8,447.2 66.8,450.9 63.1,450.9 63.1,451.3 66.8,451.3 66.8,454.9 67.2,454.9 
		67.2,451.3 70.8,451.3 70.8,450.9 67.2,450.9 	"/>
	<polygon class="st0" points="67.2,459.2 66.8,459.2 66.8,462.9 63.1,462.9 63.1,463.3 66.8,463.3 66.8,466.9 67.2,466.9 
		67.2,463.3 70.8,463.3 70.8,462.9 67.2,462.9 	"/>
	<polygon class="st0" points="67.2,471.2 66.8,471.2 66.8,474.9 63.1,474.9 63.1,475.3 66.8,475.3 66.8,478.9 67.2,478.9 
		67.2,475.3 70.8,475.3 70.8,474.9 67.2,474.9 	"/>
	<polygon class="st0" points="67.2,483.3 66.8,483.3 66.8,487 63.1,487 63.1,487.4 66.8,487.4 66.8,491 67.2,491 67.2,487.4 
		70.8,487.4 70.8,487 67.2,487 	"/>
	<polygon class="st0" points="67.2,495.3 66.8,495.3 66.8,499 63.1,499 63.1,499.4 66.8,499.4 66.8,503 67.2,503 67.2,499.4 
		70.8,499.4 70.8,499 67.2,499 	"/>
	<polygon class="st0" points="67.2,507.4 66.8,507.4 66.8,511.1 63.1,511.1 63.1,511.5 66.8,511.5 66.8,515.1 67.2,515.1 
		67.2,511.5 70.8,511.5 70.8,511.1 67.2,511.1 	"/>
	<polygon class="st0" points="52.8,45.2 52.4,45.2 52.4,48.9 48.7,48.9 48.7,49.3 52.4,49.3 52.4,52.9 52.8,52.9 52.8,49.3 
		56.4,49.3 56.4,48.9 52.8,48.9 	"/>
	<polygon class="st0" points="52.8,57.3 52.4,57.3 52.4,61 48.7,61 48.7,61.4 52.4,61.4 52.4,65 52.8,65 52.8,61.3 56.4,61.3 
		56.4,61 52.8,61 	"/>
	<polygon class="st0" points="52.8,69.3 52.4,69.3 52.4,73 48.7,73 48.7,73.4 52.4,73.4 52.4,77 52.8,77 52.8,73.4 56.4,73.4 
		56.4,73 52.8,73 	"/>
	<polygon class="st0" points="52.8,81.3 52.4,81.3 52.4,85 48.7,85 48.7,85.4 52.4,85.4 52.4,89 52.8,89 52.8,85.4 56.4,85.4 
		56.4,85 52.8,85 	"/>
	<polygon class="st0" points="52.8,93.4 52.4,93.4 52.4,97.1 48.7,97.1 48.7,97.5 52.4,97.5 52.4,101.1 52.8,101.1 52.8,97.5 
		56.4,97.5 56.4,97.1 52.8,97.1 	"/>
	<polygon class="st0" points="52.8,105.4 52.4,105.4 52.4,109.1 48.7,109.1 48.7,109.5 52.4,109.5 52.4,113.1 52.8,113.1 
		52.8,109.5 56.4,109.5 56.4,109.1 52.8,109.1 	"/>
	<polygon class="st0" points="52.8,117.5 52.4,117.5 52.4,121.2 48.7,121.2 48.7,121.6 52.4,121.6 52.4,125.2 52.8,125.2 
		52.8,121.6 56.4,121.6 56.4,121.2 52.8,121.2 	"/>
	<polygon class="st0" points="52.8,129.5 52.4,129.5 52.4,133.2 48.7,133.2 48.7,133.6 52.4,133.6 52.4,137.2 52.8,137.2 
		52.8,133.6 56.4,133.6 56.4,133.2 52.8,133.2 	"/>
	<polygon class="st0" points="52.8,141.6 52.4,141.6 52.4,145.3 48.7,145.3 48.7,145.7 52.4,145.7 52.4,149.3 52.8,149.3 
		52.8,145.7 56.4,145.7 56.4,145.3 52.8,145.3 	"/>
	<polygon class="st0" points="52.8,153.6 52.4,153.6 52.4,157.3 48.7,157.3 48.7,157.7 52.4,157.7 52.4,161.3 52.8,161.3 
		52.8,157.7 56.4,157.7 56.4,157.3 52.8,157.3 	"/>
	<polygon class="st0" points="52.8,165.7 52.4,165.7 52.4,169.4 48.7,169.4 48.7,169.8 52.4,169.8 52.4,173.4 52.8,173.4 
		52.8,169.8 56.4,169.8 56.4,169.4 52.8,169.4 	"/>
	<polygon class="st0" points="52.8,177.7 52.4,177.7 52.4,181.4 48.7,181.4 48.7,181.8 52.4,181.8 52.4,185.4 52.8,185.4 
		52.8,181.8 56.4,181.8 56.4,181.4 52.8,181.4 	"/>
	<polygon class="st0" points="52.8,189.8 52.4,189.8 52.4,193.5 48.7,193.5 48.7,193.9 52.4,193.9 52.4,197.5 52.8,197.5 
		52.8,193.9 56.4,193.9 56.4,193.5 52.8,193.5 	"/>
	<polygon class="st0" points="52.8,201.8 52.4,201.8 52.4,205.5 48.7,205.5 48.7,205.9 52.4,205.9 52.4,209.5 52.8,209.5 
		52.8,205.9 56.4,205.9 56.4,205.5 52.8,205.5 	"/>
	<polygon class="st0" points="52.8,213.9 52.4,213.9 52.4,217.6 48.7,217.6 48.7,218 52.4,218 52.4,221.6 52.8,221.6 52.8,218 
		56.4,218 56.4,217.6 52.8,217.6 	"/>
	<polygon class="st0" points="52.8,225.9 52.4,225.9 52.4,229.6 48.7,229.6 48.7,230 52.4,230 52.4,233.6 52.8,233.6 52.8,230 
		56.4,230 56.4,229.6 52.8,229.6 	"/>
	<polygon class="st0" points="52.8,238 52.4,238 52.4,241.7 48.7,241.7 48.7,242.1 52.4,242.1 52.4,245.7 52.8,245.7 52.8,242.1 
		56.4,242.1 56.4,241.7 52.8,241.7 	"/>
	<polygon class="st0" points="52.8,250 52.4,250 52.4,253.7 48.7,253.7 48.7,254.1 52.4,254.1 52.4,257.7 52.8,257.7 52.8,254.1 
		56.4,254.1 56.4,253.7 52.8,253.7 	"/>
	<polygon class="st0" points="52.8,262 52.4,262 52.4,265.7 48.7,265.7 48.7,266.1 52.4,266.1 52.4,269.7 52.8,269.7 52.8,266.1 
		56.4,266.1 56.4,265.7 52.8,265.7 	"/>
	<polygon class="st0" points="52.8,274.1 52.4,274.1 52.4,277.8 48.7,277.8 48.7,278.2 52.4,278.2 52.4,281.8 52.8,281.8 
		52.8,278.2 56.4,278.2 56.4,277.8 52.8,277.8 	"/>
	<polygon class="st0" points="52.8,286.1 52.4,286.1 52.4,289.8 48.7,289.8 48.7,290.2 52.4,290.2 52.4,293.8 52.8,293.8 
		52.8,290.2 56.4,290.2 56.4,289.8 52.8,289.8 	"/>
	<polygon class="st0" points="52.8,298.2 52.4,298.2 52.4,301.9 48.7,301.9 48.7,302.3 52.4,302.3 52.4,305.9 52.8,305.9 
		52.8,302.3 56.4,302.3 56.4,301.9 52.8,301.9 	"/>
	<polygon class="st0" points="52.8,310.2 52.4,310.2 52.4,313.9 48.7,313.9 48.7,314.3 52.4,314.3 52.4,317.9 52.8,317.9 
		52.8,314.3 56.4,314.3 56.4,313.9 52.8,313.9 	"/>
	<polygon class="st0" points="52.8,322.3 52.4,322.3 52.4,326 48.7,326 48.7,326.4 52.4,326.4 52.4,330 52.8,330 52.8,326.4 
		56.4,326.4 56.4,326 52.8,326 	"/>
	<polygon class="st0" points="52.8,334.3 52.4,334.3 52.4,338 48.7,338 48.7,338.4 52.4,338.4 52.4,342 52.8,342 52.8,338.4 
		56.4,338.4 56.4,338 52.8,338 	"/>
	<polygon class="st0" points="52.8,346.4 52.4,346.4 52.4,350.1 48.7,350.1 48.7,350.5 52.4,350.5 52.4,354.1 52.8,354.1 
		52.8,350.5 56.4,350.5 56.4,350.1 52.8,350.1 	"/>
	<polygon class="st0" points="52.8,358.4 52.4,358.4 52.4,362.1 48.7,362.1 48.7,362.5 52.4,362.5 52.4,366.1 52.8,366.1 
		52.8,362.5 56.4,362.5 56.4,362.1 52.8,362.1 	"/>
	<polygon class="st0" points="52.8,370.5 52.4,370.5 52.4,374.2 48.7,374.2 48.7,374.6 52.4,374.6 52.4,378.2 52.8,378.2 
		52.8,374.6 56.4,374.6 56.4,374.2 52.8,374.2 	"/>
	<polygon class="st0" points="52.8,382.5 52.4,382.5 52.4,386.2 48.7,386.2 48.7,386.6 52.4,386.6 52.4,390.2 52.8,390.2 
		52.8,386.6 56.4,386.6 56.4,386.2 52.8,386.2 	"/>
	<polygon class="st0" points="52.8,394.6 52.4,394.6 52.4,398.3 48.7,398.3 48.7,398.7 52.4,398.7 52.4,402.3 52.8,402.3 
		52.8,398.7 56.4,398.7 56.4,398.3 52.8,398.3 	"/>
	<polygon class="st0" points="52.8,406.6 52.4,406.6 52.4,410.3 48.7,410.3 48.7,410.7 52.4,410.7 52.4,414.3 52.8,414.3 
		52.8,410.7 56.4,410.7 56.4,410.3 52.8,410.3 	"/>
	<polygon class="st0" points="52.8,418.7 52.4,418.7 52.4,422.4 48.7,422.4 48.7,422.8 52.4,422.8 52.4,426.4 52.8,426.4 
		52.8,422.8 56.4,422.8 56.4,422.4 52.8,422.4 	"/>
	<polygon class="st0" points="52.8,430.7 52.4,430.7 52.4,434.4 48.7,434.4 48.7,434.8 52.4,434.8 52.4,438.4 52.8,438.4 
		52.8,434.8 56.4,434.8 56.4,434.4 52.8,434.4 	"/>
	<polygon class="st0" points="52.8,442.8 52.4,442.8 52.4,446.5 48.7,446.5 48.7,446.9 52.4,446.9 52.4,450.5 52.8,450.5 
		52.8,446.9 56.4,446.9 56.4,446.5 52.8,446.5 	"/>
	<polygon class="st0" points="52.8,454.8 52.4,454.8 52.4,458.5 48.7,458.5 48.7,458.9 52.4,458.9 52.4,462.5 52.8,462.5 
		52.8,458.9 56.4,458.9 56.4,458.5 52.8,458.5 	"/>
	<polygon class="st0" points="52.8,466.9 52.4,466.9 52.4,470.6 48.7,470.6 48.7,471 52.4,471 52.4,474.6 52.8,474.6 52.8,471 
		56.4,471 56.4,470.6 52.8,470.6 	"/>
	<polygon class="st0" points="52.8,478.9 52.4,478.9 52.4,482.6 48.7,482.6 48.7,483 52.4,483 52.4,486.6 52.8,486.6 52.8,483 
		56.4,483 56.4,482.6 52.8,482.6 	"/>
	<polygon class="st0" points="52.8,491 52.4,491 52.4,494.6 48.7,494.6 48.7,495 52.4,495 52.4,498.6 52.8,498.6 52.8,495 56.4,495 
		56.4,494.7 52.8,494.7 	"/>
	<polygon class="st0" points="52.8,503 52.4,503 52.4,506.7 48.7,506.7 48.7,507.1 52.4,507.1 52.4,510.7 52.8,510.7 52.8,507.1 
		56.4,507.1 56.4,506.7 52.8,506.7 	"/>
	<polygon class="st0" points="52.8,515 52.4,515 52.4,518.7 48.7,518.7 48.7,519.1 52.4,519.1 52.4,522.7 52.8,522.7 52.8,519.1 
		56.4,519.1 56.4,518.7 52.8,518.7 	"/>
	<polygon class="st0" points="52.8,527.1 52.4,527.1 52.4,530.8 48.7,530.8 48.7,531.2 52.4,531.2 52.4,534.8 52.8,534.8 
		52.8,531.2 56.4,531.2 56.4,530.8 52.8,530.8 	"/>
	<polygon class="st0" points="52.8,539.1 52.4,539.1 52.4,542.8 48.7,542.8 48.7,543.2 52.4,543.2 52.4,546.8 52.8,546.8 
		52.8,543.2 56.4,543.2 56.4,542.8 52.8,542.8 	"/>
	<polygon class="st0" points="38.4,53.1 38,53.1 38,56.8 34.3,56.8 34.3,57.2 38,57.2 38,60.8 38.4,60.8 38.4,57.2 42,57.2 42,56.8 
		38.4,56.8 	"/>
	<polygon class="st0" points="38.4,65.2 38,65.2 38,68.9 34.3,68.9 34.3,69.3 38,69.3 38,72.9 38.4,72.9 38.4,69.3 42,69.3 42,68.9 
		38.4,68.9 	"/>
	<polygon class="st0" points="38.4,77.3 38,77.3 38,81 34.3,81 34.3,81.4 38,81.4 38,85 38.4,85 38.4,81.3 42,81.3 42,81 38.4,81 	
		"/>
	<polygon class="st0" points="38.4,89.3 38,89.3 38,93 34.3,93 34.3,93.4 38,93.4 38,97 38.4,97 38.4,93.4 42,93.4 42,93 38.4,93 	
		"/>
	<polygon class="st0" points="38.4,101.3 38,101.3 38,105 34.3,105 34.3,105.4 38,105.4 38,109 38.4,109 38.4,105.4 42,105.4 
		42,105 38.4,105 	"/>
	<polygon class="st0" points="38.4,113.4 38,113.4 38,117.1 34.3,117.1 34.3,117.5 38,117.5 38,121.1 38.4,121.1 38.4,117.5 
		42,117.5 42,117.1 38.4,117.1 	"/>
	<polygon class="st0" points="38.4,125.4 38,125.4 38,129.1 34.3,129.1 34.3,129.5 38,129.5 38,133.1 38.4,133.1 38.4,129.5 
		42,129.5 42,129.1 38.4,129.1 	"/>
	<polygon class="st0" points="38.4,137.5 38,137.5 38,141.2 34.3,141.2 34.3,141.6 38,141.6 38,145.2 38.4,145.2 38.4,141.6 
		42,141.6 42,141.2 38.4,141.2 	"/>
	<polygon class="st0" points="38.4,149.5 38,149.5 38,153.2 34.3,153.2 34.3,153.6 38,153.6 38,157.2 38.4,157.2 38.4,153.6 
		42,153.6 42,153.2 38.4,153.2 	"/>
	<polygon class="st0" points="38.4,161.6 38,161.6 38,165.3 34.3,165.3 34.3,165.7 38,165.7 38,169.3 38.4,169.3 38.4,165.7 
		42,165.7 42,165.3 38.4,165.3 	"/>
	<polygon class="st0" points="38.4,173.6 38,173.6 38,177.3 34.3,177.3 34.3,177.7 38,177.7 38,181.3 38.4,181.3 38.4,177.7 
		42,177.7 42,177.3 38.4,177.3 	"/>
	<polygon class="st0" points="38.4,185.7 38,185.7 38,189.4 34.3,189.4 34.3,189.8 38,189.8 38,193.4 38.4,193.4 38.4,189.8 
		42,189.8 42,189.4 38.4,189.4 	"/>
	<polygon class="st0" points="38.4,197.7 38,197.7 38,201.4 34.3,201.4 34.3,201.8 38,201.8 38,205.4 38.4,205.4 38.4,201.8 
		42,201.8 42,201.4 38.4,201.4 	"/>
	<polygon class="st0" points="38.4,209.8 38,209.8 38,213.5 34.3,213.5 34.3,213.9 38,213.9 38,217.5 38.4,217.5 38.4,213.9 
		42,213.9 42,213.5 38.4,213.5 	"/>
	<polygon class="st0" points="38.4,221.8 38,221.8 38,225.5 34.3,225.5 34.3,225.9 38,225.9 38,229.5 38.4,229.5 38.4,225.9 
		42,225.9 42,225.5 38.4,225.5 	"/>
	<polygon class="st0" points="38.4,233.8 38,233.8 38,237.5 34.3,237.5 34.3,237.9 38,237.9 38,241.5 38.4,241.5 38.4,237.9 
		42,237.9 42,237.5 38.4,237.5 	"/>
	<polygon class="st0" points="38.4,245.9 38,245.9 38,249.6 34.3,249.6 34.3,250 38,250 38,253.6 38.4,253.6 38.4,250 42,250 
		42,249.6 38.4,249.6 	"/>
	<polygon class="st0" points="38.4,258 38,258 38,261.6 34.3,261.6 34.3,262 38,262 38,265.6 38.4,265.6 38.4,262 42,262 42,261.7 
		38.4,261.7 	"/>
	<polygon class="st0" points="38.4,270 38,270 38,273.7 34.3,273.7 34.3,274.1 38,274.1 38,277.7 38.4,277.7 38.4,274.1 42,274.1 
		42,273.7 38.4,273.7 	"/>
	<polygon class="st0" points="38.4,282 38,282 38,285.7 34.3,285.7 34.3,286.1 38,286.1 38,289.7 38.4,289.7 38.4,286.1 42,286.1 
		42,285.7 38.4,285.7 	"/>
	<polygon class="st0" points="38.4,294.1 38,294.1 38,297.8 34.3,297.8 34.3,298.2 38,298.2 38,301.8 38.4,301.8 38.4,298.2 
		42,298.2 42,297.8 38.4,297.8 	"/>
	<polygon class="st0" points="38.4,306.1 38,306.1 38,309.8 34.3,309.8 34.3,310.2 38,310.2 38,313.8 38.4,313.8 38.4,310.2 
		42,310.2 42,309.8 38.4,309.8 	"/>
	<polygon class="st0" points="38.4,318.2 38,318.2 38,321.9 34.3,321.9 34.3,322.3 38,322.3 38,325.9 38.4,325.9 38.4,322.3 
		42,322.3 42,321.9 38.4,321.9 	"/>
	<polygon class="st0" points="38.4,330.2 38,330.2 38,333.9 34.3,333.9 34.3,334.3 38,334.3 38,337.9 38.4,337.9 38.4,334.3 
		42,334.3 42,333.9 38.4,333.9 	"/>
	<polygon class="st0" points="38.4,342.3 38,342.3 38,346 34.3,346 34.3,346.4 38,346.4 38,350 38.4,350 38.4,346.4 42,346.4 
		42,346 38.4,346 	"/>
	<polygon class="st0" points="38.4,354.3 38,354.3 38,358 34.3,358 34.3,358.4 38,358.4 38,362 38.4,362 38.4,358.4 42,358.4 
		42,358 38.4,358 	"/>
	<polygon class="st0" points="38.4,366.4 38,366.4 38,370.1 34.3,370.1 34.3,370.5 38,370.5 38,374.1 38.4,374.1 38.4,370.5 
		42,370.5 42,370.1 38.4,370.1 	"/>
	<polygon class="st0" points="38.4,378.4 38,378.4 38,382.1 34.3,382.1 34.3,382.5 38,382.5 38,386.1 38.4,386.1 38.4,382.5 
		42,382.5 42,382.1 38.4,382.1 	"/>
	<polygon class="st0" points="38.4,390.5 38,390.5 38,394.2 34.3,394.2 34.3,394.6 38,394.6 38,398.2 38.4,398.2 38.4,394.6 
		42,394.6 42,394.2 38.4,394.2 	"/>
	<polygon class="st0" points="38.4,402.5 38,402.5 38,406.2 34.3,406.2 34.3,406.6 38,406.6 38,410.2 38.4,410.2 38.4,406.6 
		42,406.6 42,406.2 38.4,406.2 	"/>
	<polygon class="st0" points="38.4,414.6 38,414.6 38,418.3 34.3,418.3 34.3,418.7 38,418.7 38,422.3 38.4,422.3 38.4,418.7 
		42,418.7 42,418.3 38.4,418.3 	"/>
	<polygon class="st0" points="38.4,426.6 38,426.6 38,430.3 34.3,430.3 34.3,430.7 38,430.7 38,434.3 38.4,434.3 38.4,430.7 
		42,430.7 42,430.3 38.4,430.3 	"/>
	<polygon class="st0" points="38.4,438.6 38,438.6 38,442.3 34.3,442.3 34.3,442.7 38,442.7 38,446.3 38.4,446.3 38.4,442.7 
		42,442.7 42,442.3 38.4,442.3 	"/>
	<polygon class="st0" points="38.4,450.7 38,450.7 38,454.4 34.3,454.4 34.3,454.8 38,454.8 38,458.4 38.4,458.4 38.4,454.8 
		42,454.8 42,454.4 38.4,454.4 	"/>
	<polygon class="st0" points="38.4,462.7 38,462.7 38,466.4 34.3,466.4 34.3,466.8 38,466.8 38,470.4 38.4,470.4 38.4,466.8 
		42,466.8 42,466.4 38.4,466.4 	"/>
	<polygon class="st0" points="38.4,474.8 38,474.8 38,478.5 34.3,478.5 34.3,478.9 38,478.9 38,482.5 38.4,482.5 38.4,478.9 
		42,478.9 42,478.5 38.4,478.5 	"/>
	<polygon class="st0" points="38.4,486.8 38,486.8 38,490.5 34.3,490.5 34.3,490.9 38,490.9 38,494.5 38.4,494.5 38.4,490.9 
		42,490.9 42,490.5 38.4,490.5 	"/>
	<polygon class="st0" points="38.4,498.9 38,498.9 38,502.6 34.3,502.6 34.3,503 38,503 38,506.6 38.4,506.6 38.4,503 42,503 
		42,502.6 38.4,502.6 	"/>
	<polygon class="st0" points="38.4,511 38,511 38,514.6 34.3,514.6 34.3,515 38,515 38,518.6 38.4,518.6 38.4,515 42,515 42,514.7 
		38.4,514.7 	"/>
	<polygon class="st0" points="38.4,523 38,523 38,526.7 34.3,526.7 34.3,527.1 38,527.1 38,530.7 38.4,530.7 38.4,527.1 42,527.1 
		42,526.7 38.4,526.7 	"/>
	<polygon class="st0" points="38.4,535 38,535 38,538.7 34.3,538.7 34.3,539.1 38,539.1 38,542.7 38.4,542.7 38.4,539.1 42,539.1 
		42,538.7 38.4,538.7 	"/>
	<polygon class="st0" points="38.4,547.1 38,547.1 38,550.8 34.3,550.8 34.3,551.2 38,551.2 38,554.8 38.4,554.8 38.4,551.2 
		42,551.2 42,550.8 38.4,550.8 	"/>
	<polygon class="st0" points="24,85.7 23.6,85.7 23.6,89.4 19.9,89.4 19.9,89.8 23.6,89.8 23.6,93.4 24,93.4 24,89.8 27.6,89.8 
		27.6,89.4 24,89.4 	"/>
	<polygon class="st0" points="24,97.7 23.6,97.7 23.6,101.4 19.9,101.4 19.9,101.8 23.6,101.8 23.6,105.4 24,105.4 24,101.8 
		27.6,101.8 27.6,101.4 24,101.4 	"/>
	<polygon class="st0" points="24,109.8 23.6,109.8 23.6,113.5 19.9,113.5 19.9,113.9 23.6,113.9 23.6,117.5 24,117.5 24,113.9 
		27.6,113.9 27.6,113.5 24,113.5 	"/>
	<polygon class="st0" points="24,121.8 23.6,121.8 23.6,125.5 19.9,125.5 19.9,125.9 23.6,125.9 23.6,129.5 24,129.5 24,125.9 
		27.6,125.9 27.6,125.5 24,125.5 	"/>
	<polygon class="st0" points="24,133.9 23.6,133.9 23.6,137.6 19.9,137.6 19.9,138 23.6,138 23.6,141.6 24,141.6 24,138 27.6,138 
		27.6,137.6 24,137.6 	"/>
	<polygon class="st0" points="24,146 23.6,146 23.6,149.6 19.9,149.6 19.9,150 23.6,150 23.6,153.6 24,153.6 24,150 27.6,150 
		27.6,149.7 24,149.7 	"/>
	<polygon class="st0" points="24,158 23.6,158 23.6,161.7 19.9,161.7 19.9,162.1 23.6,162.1 23.6,165.7 24,165.7 24,162.1 
		27.6,162.1 27.6,161.7 24,161.7 	"/>
	<polygon class="st0" points="24,170 23.6,170 23.6,173.7 19.9,173.7 19.9,174.1 23.6,174.1 23.6,177.7 24,177.7 24,174.1 
		27.6,174.1 27.6,173.7 24,173.7 	"/>
	<polygon class="st0" points="24,182.1 23.6,182.1 23.6,185.8 19.9,185.8 19.9,186.2 23.6,186.2 23.6,189.8 24,189.8 24,186.2 
		27.6,186.2 27.6,185.8 24,185.8 	"/>
	<polygon class="st0" points="24,194.1 23.6,194.1 23.6,197.8 19.9,197.8 19.9,198.2 23.6,198.2 23.6,201.8 24,201.8 24,198.2 
		27.6,198.2 27.6,197.8 24,197.8 	"/>
	<polygon class="st0" points="24,206.1 23.6,206.1 23.6,209.8 19.9,209.8 19.9,210.2 23.6,210.2 23.6,213.8 24,213.8 24,210.2 
		27.6,210.2 27.6,209.8 24,209.8 	"/>
	<polygon class="st0" points="24,218.2 23.6,218.2 23.6,221.9 19.9,221.9 19.9,222.3 23.6,222.3 23.6,225.9 24,225.9 24,222.3 
		27.6,222.3 27.6,221.9 24,221.9 	"/>
	<polygon class="st0" points="24,230.2 23.6,230.2 23.6,233.9 19.9,233.9 19.9,234.3 23.6,234.3 23.6,237.9 24,237.9 24,234.3 
		27.6,234.3 27.6,233.9 24,233.9 	"/>
	<polygon class="st0" points="24,242.3 23.6,242.3 23.6,246 19.9,246 19.9,246.4 23.6,246.4 23.6,250 24,250 24,246.4 27.6,246.4 
		27.6,246 24,246 	"/>
	<polygon class="st0" points="24,254.3 23.6,254.3 23.6,258 19.9,258 19.9,258.4 23.6,258.4 23.6,262 24,262 24,258.4 27.6,258.4 
		27.6,258 24,258 	"/>
	<polygon class="st0" points="24,266.4 23.6,266.4 23.6,270.1 19.9,270.1 19.9,270.5 23.6,270.5 23.6,274.1 24,274.1 24,270.5 
		27.6,270.5 27.6,270.1 24,270.1 	"/>
	<polygon class="st0" points="24,278.4 23.6,278.4 23.6,282.1 19.9,282.1 19.9,282.5 23.6,282.5 23.6,286.1 24,286.1 24,282.5 
		27.6,282.5 27.6,282.1 24,282.1 	"/>
	<polygon class="st0" points="24,290.5 23.6,290.5 23.6,294.2 19.9,294.2 19.9,294.6 23.6,294.6 23.6,298.2 24,298.2 24,294.6 
		27.6,294.6 27.6,294.2 24,294.2 	"/>
	<polygon class="st0" points="24,302.5 23.6,302.5 23.6,306.2 19.9,306.2 19.9,306.6 23.6,306.6 23.6,310.2 24,310.2 24,306.6 
		27.6,306.6 27.6,306.2 24,306.2 	"/>
	<polygon class="st0" points="24,314.6 23.6,314.6 23.6,318.3 19.9,318.3 19.9,318.7 23.6,318.7 23.6,322.3 24,322.3 24,318.7 
		27.6,318.7 27.6,318.3 24,318.3 	"/>
	<polygon class="st0" points="24,326.6 23.6,326.6 23.6,330.3 19.9,330.3 19.9,330.7 23.6,330.7 23.6,334.3 24,334.3 24,330.7 
		27.6,330.7 27.6,330.3 24,330.3 	"/>
	<polygon class="st0" points="24,338.7 23.6,338.7 23.6,342.4 19.9,342.4 19.9,342.8 23.6,342.8 23.6,346.4 24,346.4 24,342.8 
		27.6,342.8 27.6,342.4 24,342.4 	"/>
	<polygon class="st0" points="24,350.7 23.6,350.7 23.6,354.4 19.9,354.4 19.9,354.8 23.6,354.8 23.6,358.4 24,358.4 24,354.8 
		27.6,354.8 27.6,354.4 24,354.4 	"/>
	<polygon class="st0" points="24,362.8 23.6,362.8 23.6,366.5 19.9,366.5 19.9,366.9 23.6,366.9 23.6,370.5 24,370.5 24,366.9 
		27.6,366.9 27.6,366.5 24,366.5 	"/>
	<polygon class="st0" points="24,374.8 23.6,374.8 23.6,378.5 19.9,378.5 19.9,378.9 23.6,378.9 23.6,382.5 24,382.5 24,378.9 
		27.6,378.9 27.6,378.5 24,378.5 	"/>
	<polygon class="st0" points="24,386.9 23.6,386.9 23.6,390.6 19.9,390.6 19.9,391 23.6,391 23.6,394.6 24,394.6 24,391 27.6,391 
		27.6,390.6 24,390.6 	"/>
	<polygon class="st0" points="24,398.9 23.6,398.9 23.6,402.6 19.9,402.6 19.9,403 23.6,403 23.6,406.6 24,406.6 24,403 27.6,403 
		27.6,402.6 24,402.6 	"/>
	<polygon class="st0" points="24,411 23.6,411 23.6,414.7 19.9,414.7 19.9,415.1 23.6,415.1 23.6,418.7 24,418.7 24,415.1 
		27.6,415.1 27.6,414.7 24,414.7 	"/>
	<polygon class="st0" points="24,423 23.6,423 23.6,426.7 19.9,426.7 19.9,427.1 23.6,427.1 23.6,430.7 24,430.7 24,427.1 
		27.6,427.1 27.6,426.7 24,426.7 	"/>
	<polygon class="st0" points="24,435 23.6,435 23.6,438.7 19.9,438.7 19.9,439.1 23.6,439.1 23.6,442.7 24,442.7 24,439.1 
		27.6,439.1 27.6,438.7 24,438.7 	"/>
	<polygon class="st0" points="24,447.1 23.6,447.1 23.6,450.8 19.9,450.8 19.9,451.2 23.6,451.2 23.6,454.8 24,454.8 24,451.2 
		27.6,451.2 27.6,450.8 24,450.8 	"/>
	<polygon class="st0" points="24,459.1 23.6,459.1 23.6,462.8 19.9,462.8 19.9,463.2 23.6,463.2 23.6,466.8 24,466.8 24,463.2 
		27.6,463.2 27.6,462.8 24,462.8 	"/>
	<polygon class="st0" points="24,471.2 23.6,471.2 23.6,474.9 19.9,474.9 19.9,475.3 23.6,475.3 23.6,478.9 24,478.9 24,475.3 
		27.6,475.3 27.6,474.9 24,474.9 	"/>
	<polygon class="st0" points="24,483.2 23.6,483.2 23.6,486.9 19.9,486.9 19.9,487.3 23.6,487.3 23.6,490.9 24,490.9 24,487.3 
		27.6,487.3 27.6,486.9 24,486.9 	"/>
	<polygon class="st0" points="24,495.3 23.6,495.3 23.6,499 19.9,499 19.9,499.4 23.6,499.4 23.6,503 24,503 24,499.4 27.6,499.4 
		27.6,499 24,499 	"/>
	<polygon class="st0" points="24,507.3 23.6,507.3 23.6,511 19.9,511 19.9,511.4 23.6,511.4 23.6,515 24,515 24,511.4 27.6,511.4 
		27.6,511 24,511 	"/>
	<polygon class="st0" points="24,519.4 23.6,519.4 23.6,523.1 19.9,523.1 19.9,523.5 23.6,523.5 23.6,527.1 24,527.1 24,523.5 
		27.6,523.5 27.6,523.1 24,523.1 	"/>
	<polygon class="st0" points="24,531.4 23.6,531.4 23.6,535.1 19.9,535.1 19.9,535.5 23.6,535.5 23.6,539.1 24,539.1 24,535.5 
		27.6,535.5 27.6,535.1 24,535.1 	"/>
	<polygon class="st0" points="24,543.5 23.6,543.5 23.6,547.2 19.9,547.2 19.9,547.6 23.6,547.6 23.6,551.2 24,551.2 24,547.6 
		27.6,547.6 27.6,547.2 24,547.2 	"/>
	<polygon class="st0" points="24,555.5 23.6,555.5 23.6,559.2 19.9,559.2 19.9,559.6 23.6,559.6 23.6,563.2 24,563.2 24,559.6 
		27.6,559.6 27.6,559.2 24,559.2 	"/>
	<polygon class="st0" points="24,567.6 23.6,567.6 23.6,571.3 19.9,571.3 19.9,571.7 23.6,571.7 23.6,575.3 24,575.3 24,571.7 
		27.6,571.7 27.6,571.3 24,571.3 	"/>
	<polygon class="st0" points="24,579.6 23.6,579.6 23.6,583.3 19.9,583.3 19.9,583.7 23.6,583.7 23.6,587.3 24,587.3 24,583.7 
		27.6,583.7 27.6,583.3 24,583.3 	"/>
</g>
</svg>
