<svg width="24" height="24" xmlns="http://www.w3.org/2000/svg">

 <g>
  <title>background</title>
  <rect fill="none" id="canvas_background" height="402" width="582" y="-1" x="-1"/>
 </g>
 <g>
  <title>Layer 1</title>
  <path fill="#751746" id="svg_1" d="m23.7,11.6l-2.3,-1.6l2.3,-1.6c0.4,-0.3 0.4,-0.7 0,-0.9l-11,-7.3c-0.4,-0.3 -1,-0.3 -1.4,0l-11,7.3c-0.4,0.3 -0.4,0.7 0,0.9l2.3,1.6l-2.3,1.6c-0.4,0.3 -0.4,0.7 0,0.9l2.3,1.5l-2.3,1.5c-0.4,0.3 -0.4,0.7 0,0.9l11,7.3c0.4,0.3 1,0.3 1.4,0l11,-7.3c0.4,-0.3 0.4,-0.7 0,-0.9l-2.3,-1.5l2.3,-1.5c0.4,-0.3 0.4,-0.7 0,-0.9zm-21,-3.6l9.3,-6.1l9.2,6.1l-9.2,6.2l-9.3,-6.2zm18.5,8l-9.2,6.2l-9.3,-6.2l1.4,-1l7.2,4.8c0.4,0.3 1,0.3 1.4,0l7.2,-4.8l1.3,1zm-9.2,2.2l-9.3,-6.2l1.5,-1l7.1,4.7c0.4,0.3 1,0.3 1.4,0l7.1,-4.7l1.5,1l-9.3,6.2z"/>
 </g>
</svg>