<?xml version="1.0" encoding="utf-8"?>
<!-- Generator: Adobe Illustrator 23.0.1, SVG Export Plug-In . SVG Version: 6.00 Build 0)  -->
<svg version="1.1" id="Layer_1" xmlns="http://www.w3.org/2000/svg" xmlns:xlink="http://www.w3.org/1999/xlink" x="0px" y="0px"
	 width="240.3px" height="53.3px" viewBox="0 0 240.3 53.3" style="enable-background:new 0 0 240.3 53.3;" xml:space="preserve">
<polygon points="93.6,41.3 89.9,49.7 89,49.7 85.3,41.3 86.3,41.3 89.5,48.6 92.7,41.3 "/>
<path d="M95.2,43.4h0.9v6.3h-0.9V43.4z M95.2,41.9c-0.1-0.1-0.2-0.3-0.2-0.4c0-0.2,0.1-0.3,0.2-0.4c0.1-0.1,0.3-0.2,0.4-0.2
	c0.2,0,0.3,0.1,0.4,0.2c0.1,0.1,0.2,0.3,0.2,0.4c0,0.2-0.1,0.3-0.2,0.4C96,42,95.8,42,95.7,42C95.5,42,95.3,42,95.2,41.9"/>
<path d="M100.8,43.7c0.4-0.2,0.9-0.3,1.5-0.3v0.8l-0.2,0c-0.7,0-1.2,0.2-1.6,0.6c-0.4,0.4-0.6,1-0.6,1.7v3.2h-0.9v-6.3h0.8v1.2
	C100.1,44.2,100.4,43.9,100.8,43.7"/>
<path d="M108.2,48.4c0.4-0.2,0.7-0.5,0.9-0.8c0.2-0.4,0.3-0.7,0.3-1.2c0-0.4-0.1-0.8-0.3-1.2c-0.2-0.3-0.5-0.6-0.8-0.8
	c-0.4-0.2-0.8-0.3-1.2-0.3c-0.5,0-0.9,0.1-1.2,0.3c-0.4,0.2-0.6,0.5-0.9,0.8c-0.2,0.4-0.3,0.8-0.3,1.2c0,0.4,0.1,0.8,0.3,1.2
	c0.2,0.4,0.5,0.6,0.9,0.8c0.4,0.2,0.8,0.3,1.2,0.3C107.4,48.7,107.8,48.6,108.2,48.4 M110.2,43.4v5.5c0,1.1-0.3,1.9-0.8,2.4
	c-0.5,0.5-1.3,0.8-2.4,0.8c-0.6,0-1.1-0.1-1.7-0.3c-0.5-0.2-0.9-0.4-1.3-0.7l0.4-0.6c0.3,0.3,0.7,0.5,1.1,0.6
	c0.4,0.2,0.9,0.2,1.4,0.2c0.8,0,1.4-0.2,1.8-0.6s0.6-0.9,0.6-1.7v-0.8c-0.3,0.4-0.6,0.7-1,0.9c-0.4,0.2-0.9,0.3-1.4,0.3
	c-0.6,0-1.1-0.1-1.6-0.4c-0.5-0.3-0.9-0.6-1.1-1.1c-0.3-0.5-0.4-1-0.4-1.6s0.1-1.1,0.4-1.6c0.3-0.5,0.7-0.8,1.1-1.1
	c0.5-0.3,1-0.4,1.6-0.4c0.5,0,1,0.1,1.4,0.3c0.4,0.2,0.8,0.5,1,0.9v-1.2H110.2z"/>
<path d="M113.2,43.4h0.9v6.3h-0.9V43.4z M113.2,41.9c-0.1-0.1-0.2-0.3-0.2-0.4c0-0.2,0.1-0.3,0.2-0.4c0.1-0.1,0.3-0.2,0.4-0.2
	c0.2,0,0.3,0.1,0.4,0.2c0.1,0.1,0.2,0.3,0.2,0.4c0,0.2-0.1,0.3-0.2,0.4c-0.1,0.1-0.3,0.2-0.4,0.2C113.4,42,113.3,42,113.2,41.9"/>
<path d="M122.1,44c0.5,0.5,0.7,1.1,0.7,2v3.6H122v-3.6c0-0.7-0.2-1.2-0.5-1.5c-0.3-0.3-0.8-0.5-1.4-0.5c-0.7,0-1.2,0.2-1.6,0.6
	c-0.4,0.4-0.6,1-0.6,1.7v3.3H117v-6.3h0.8v1.2c0.2-0.4,0.6-0.7,1-0.9c0.4-0.2,0.9-0.3,1.4-0.3C121,43.4,121.6,43.6,122.1,44"/>
<path d="M125.7,43.4h0.9v6.3h-0.9V43.4z M125.7,41.9c-0.1-0.1-0.2-0.3-0.2-0.4c0-0.2,0.1-0.3,0.2-0.4c0.1-0.1,0.3-0.2,0.4-0.2
	c0.2,0,0.3,0.1,0.4,0.2c0.1,0.1,0.2,0.3,0.2,0.4c0,0.2-0.1,0.3-0.2,0.4c-0.1,0.1-0.3,0.2-0.4,0.2C126,42,125.8,42,125.7,41.9"/>
<path d="M132.7,48.8c0.3-0.2,0.6-0.5,0.8-1v-1h-2c-1.1,0-1.6,0.4-1.6,1.1c0,0.4,0.1,0.7,0.4,0.9c0.3,0.2,0.7,0.3,1.2,0.3
	C132,49.1,132.4,49,132.7,48.8 M133.7,44c0.4,0.4,0.7,1,0.7,1.8v3.9h-0.8v-1c-0.2,0.3-0.5,0.6-0.8,0.8c-0.4,0.2-0.8,0.3-1.3,0.3
	c-0.7,0-1.3-0.2-1.7-0.5c-0.4-0.3-0.6-0.8-0.6-1.3c0-0.5,0.2-1,0.6-1.3c0.4-0.3,1-0.5,1.8-0.5h2v-0.4c0-0.5-0.2-1-0.5-1.2
	c-0.3-0.3-0.7-0.4-1.3-0.4c-0.4,0-0.8,0.1-1.1,0.2c-0.4,0.1-0.7,0.3-0.9,0.5l-0.4-0.6c0.3-0.3,0.7-0.5,1.1-0.6
	c0.4-0.1,0.9-0.2,1.4-0.2C132.6,43.4,133.2,43.6,133.7,44"/>
<path d="M141.7,49.5c-0.6-0.2-1-0.5-1.3-0.8l0.3-0.7c0.3,0.3,0.7,0.5,1.2,0.7c0.5,0.2,1,0.3,1.6,0.3c0.8,0,1.3-0.1,1.7-0.4
	c0.4-0.3,0.6-0.6,0.6-1.1c0-0.3-0.1-0.6-0.3-0.8c-0.2-0.2-0.5-0.4-0.7-0.5c-0.3-0.1-0.7-0.2-1.2-0.4c-0.6-0.2-1.1-0.3-1.5-0.5
	c-0.4-0.1-0.7-0.4-1-0.7c-0.3-0.3-0.4-0.7-0.4-1.2c0-0.4,0.1-0.8,0.3-1.2c0.2-0.3,0.6-0.6,1-0.8c0.5-0.2,1-0.3,1.7-0.3
	c0.5,0,0.9,0.1,1.4,0.2c0.5,0.1,0.9,0.3,1.2,0.5l-0.3,0.7c-0.4-0.2-0.7-0.4-1.1-0.5c-0.4-0.1-0.8-0.2-1.2-0.2
	c-0.7,0-1.3,0.1-1.7,0.4c-0.4,0.3-0.6,0.6-0.6,1.1c0,0.3,0.1,0.6,0.3,0.8c0.2,0.2,0.5,0.4,0.8,0.5c0.3,0.1,0.7,0.2,1.2,0.4
	c0.6,0.2,1.1,0.3,1.5,0.4c0.4,0.1,0.7,0.4,1,0.7c0.3,0.3,0.4,0.7,0.4,1.2c0,0.4-0.1,0.8-0.3,1.2c-0.2,0.3-0.6,0.6-1,0.8
	c-0.5,0.2-1,0.3-1.7,0.3C142.9,49.8,142.3,49.7,141.7,49.5"/>
<path d="M152.8,48.7c0.4-0.2,0.6-0.5,0.8-0.9s0.3-0.8,0.3-1.3c0-0.5-0.1-0.9-0.3-1.3s-0.5-0.7-0.8-0.9c-0.4-0.2-0.8-0.3-1.2-0.3
	c-0.4,0-0.8,0.1-1.2,0.3c-0.4,0.2-0.6,0.5-0.8,0.9c-0.2,0.4-0.3,0.8-0.3,1.3c0,0.5,0.1,0.9,0.3,1.3c0.2,0.4,0.5,0.7,0.8,0.9
	c0.4,0.2,0.8,0.3,1.2,0.3C152,49,152.4,48.9,152.8,48.7 M149.9,49.3c-0.5-0.3-0.9-0.7-1.1-1.1c-0.3-0.5-0.4-1-0.4-1.7
	c0-0.6,0.1-1.2,0.4-1.7c0.3-0.5,0.7-0.9,1.1-1.1c0.5-0.3,1-0.4,1.6-0.4c0.6,0,1.2,0.1,1.6,0.4s0.9,0.6,1.1,1.1
	c0.3,0.5,0.4,1,0.4,1.7c0,0.6-0.1,1.2-0.4,1.7c-0.3,0.5-0.7,0.9-1.1,1.1c-0.5,0.3-1,0.4-1.6,0.4C151,49.8,150.4,49.6,149.9,49.3"/>
<path d="M158.1,49.4c-0.5-0.3-0.9-0.7-1.2-1.1c-0.3-0.5-0.4-1-0.4-1.7c0-0.6,0.1-1.2,0.4-1.7c0.3-0.5,0.7-0.9,1.2-1.1
	c0.5-0.3,1-0.4,1.7-0.4c0.5,0,1,0.1,1.5,0.3c0.4,0.2,0.8,0.5,1,0.9l-0.6,0.4c-0.2-0.3-0.5-0.5-0.8-0.7c-0.3-0.2-0.7-0.2-1-0.2
	c-0.5,0-0.9,0.1-1.2,0.3c-0.4,0.2-0.6,0.5-0.8,0.9c-0.2,0.4-0.3,0.8-0.3,1.3c0,0.5,0.1,0.9,0.3,1.3c0.2,0.4,0.5,0.7,0.8,0.9
	s0.8,0.3,1.2,0.3c0.4,0,0.7-0.1,1-0.2c0.3-0.2,0.6-0.4,0.8-0.7l0.6,0.4c-0.2,0.4-0.6,0.7-1,0.9c-0.4,0.2-0.9,0.3-1.4,0.3
	C159.1,49.8,158.6,49.6,158.1,49.4"/>
<path d="M164.5,43.4h0.9v6.3h-0.9V43.4z M164.5,41.9c-0.1-0.1-0.2-0.3-0.2-0.4c0-0.2,0.1-0.3,0.2-0.4c0.1-0.1,0.3-0.2,0.4-0.2
	c0.2,0,0.3,0.1,0.4,0.2c0.1,0.1,0.2,0.3,0.2,0.4c0,0.2-0.1,0.3-0.2,0.4c-0.1,0.1-0.3,0.2-0.4,0.2C164.7,42,164.6,42,164.5,41.9"/>
<path d="M169.2,44.7c-0.4,0.4-0.6,0.9-0.7,1.5h4.5c-0.1-0.6-0.3-1.1-0.7-1.5s-0.9-0.6-1.5-0.6C170.2,44.1,169.7,44.3,169.2,44.7
	 M173.8,46.8h-5.3c0,0.7,0.3,1.2,0.8,1.6c0.5,0.4,1,0.6,1.7,0.6c0.4,0,0.7-0.1,1.1-0.2c0.3-0.1,0.6-0.3,0.9-0.6l0.5,0.6
	c-0.3,0.3-0.6,0.6-1,0.8c-0.4,0.2-0.9,0.3-1.4,0.3c-0.6,0-1.2-0.1-1.7-0.4c-0.5-0.3-0.9-0.7-1.2-1.1c-0.3-0.5-0.4-1-0.4-1.7
	c0-0.6,0.1-1.2,0.4-1.7c0.3-0.5,0.6-0.9,1.1-1.1c0.5-0.3,1-0.4,1.6-0.4s1.1,0.1,1.6,0.4c0.5,0.3,0.8,0.6,1.1,1.1
	c0.3,0.5,0.4,1,0.4,1.7L173.8,46.8z"/>
<path d="M179.5,49.3c-0.2,0.1-0.4,0.3-0.6,0.3c-0.2,0.1-0.5,0.1-0.7,0.1c-0.6,0-1-0.2-1.4-0.5c-0.3-0.3-0.5-0.8-0.5-1.4v-3.8h-1.1
	v-0.7h1.1V42h0.9v1.4h1.9v0.7h-1.9v3.8c0,0.4,0.1,0.7,0.3,0.9c0.2,0.2,0.5,0.3,0.8,0.3c0.2,0,0.3,0,0.5-0.1c0.2-0.1,0.3-0.1,0.4-0.2
	L179.5,49.3z"/>
<path d="M186.8,43.4l-3.1,7c-0.3,0.6-0.6,1-0.9,1.3c-0.3,0.2-0.7,0.4-1.2,0.4c-0.3,0-0.6,0-0.9-0.1c-0.3-0.1-0.5-0.2-0.7-0.4
	l0.4-0.6c0.3,0.3,0.7,0.5,1.1,0.5c0.3,0,0.5-0.1,0.7-0.2c0.2-0.2,0.4-0.4,0.6-0.8l0.3-0.6l-2.8-6.3h0.9l2.4,5.4l2.4-5.4H186.8z"/>
<path d="M196.2,48.7c0.4-0.2,0.6-0.5,0.8-0.9s0.3-0.8,0.3-1.3c0-0.5-0.1-0.9-0.3-1.3s-0.5-0.7-0.8-0.9c-0.4-0.2-0.8-0.3-1.2-0.3
	c-0.4,0-0.8,0.1-1.2,0.3c-0.4,0.2-0.6,0.5-0.8,0.9c-0.2,0.4-0.3,0.8-0.3,1.3c0,0.5,0.1,0.9,0.3,1.3c0.2,0.4,0.5,0.7,0.8,0.9
	c0.4,0.2,0.8,0.3,1.2,0.3C195.4,49,195.8,48.9,196.2,48.7 M193.3,49.3c-0.5-0.3-0.9-0.7-1.1-1.1c-0.3-0.5-0.4-1-0.4-1.7
	c0-0.6,0.1-1.2,0.4-1.7c0.3-0.5,0.7-0.9,1.1-1.1c0.5-0.3,1-0.4,1.6-0.4c0.6,0,1.2,0.1,1.6,0.4s0.9,0.6,1.1,1.1
	c0.3,0.5,0.4,1,0.4,1.7c0,0.6-0.1,1.2-0.4,1.7c-0.3,0.5-0.7,0.9-1.1,1.1c-0.5,0.3-1,0.4-1.6,0.4C194.4,49.8,193.8,49.6,193.3,49.3"
	/>
<path d="M201.8,41.8c-0.2,0.2-0.3,0.5-0.3,0.9v0.7h1.9v0.7h-1.9v5.6h-0.8v-5.6h-1.1v-0.7h1.1v-0.8c0-0.6,0.2-1,0.5-1.4
	s0.8-0.5,1.4-0.5c0.2,0,0.5,0,0.7,0.1c0.2,0.1,0.4,0.2,0.6,0.3l-0.3,0.6c-0.2-0.2-0.6-0.3-0.9-0.3C202.2,41.5,202,41.6,201.8,41.8"
	/>
<path d="M210.5,49.2c-0.7-0.4-1.2-0.9-1.6-1.5c-0.4-0.7-0.6-1.4-0.6-2.2s0.2-1.5,0.6-2.2c0.4-0.6,0.9-1.2,1.6-1.5
	c0.7-0.4,1.4-0.6,2.2-0.6c0.6,0,1.2,0.1,1.7,0.3c0.5,0.2,1,0.5,1.3,0.9l-0.6,0.6c-0.7-0.7-1.5-1-2.5-1c-0.7,0-1.3,0.2-1.8,0.5
	c-0.5,0.3-1,0.7-1.3,1.2c-0.3,0.5-0.5,1.1-0.5,1.8s0.2,1.2,0.5,1.8c0.3,0.5,0.7,0.9,1.3,1.2c0.5,0.3,1.1,0.5,1.8,0.5
	c1,0,1.8-0.3,2.5-1l0.6,0.6c-0.4,0.4-0.8,0.7-1.3,0.9c-0.5,0.2-1.1,0.3-1.7,0.3C212,49.8,211.2,49.6,210.5,49.2"/>
<path d="M223.4,45.7c0.4-0.4,0.7-0.9,0.7-1.5c0-0.7-0.2-1.2-0.7-1.6c-0.4-0.4-1.1-0.5-1.9-0.5h-2.2v4.2h2.2
	C222.3,46.3,223,46.1,223.4,45.7 M224,42.1c0.6,0.5,0.9,1.2,0.9,2.1c0,0.9-0.3,1.6-0.9,2.1c-0.6,0.5-1.4,0.8-2.5,0.8h-2.2v2.6h-0.9
	v-8.4h3.1C222.6,41.3,223.4,41.6,224,42.1"/>
<path d="M232,46.7l-2-4.5l-2,4.5H232z M232.3,47.5h-4.7l-1,2.2h-0.9l3.8-8.4h0.9l3.8,8.4h-0.9L232.3,47.5z"/>
<path d="M236.2,49.5c-0.5-0.1-0.8-0.3-1.1-0.6l0.4-0.7c0.3,0.2,0.6,0.4,1,0.5c0.4,0.1,0.8,0.2,1.2,0.2c0.6,0,1-0.1,1.3-0.3
	c0.3-0.2,0.4-0.4,0.4-0.8c0-0.2-0.1-0.4-0.2-0.5c-0.2-0.1-0.3-0.2-0.6-0.3c-0.2-0.1-0.5-0.1-0.9-0.2c-0.5-0.1-0.9-0.2-1.2-0.3
	c-0.3-0.1-0.6-0.3-0.8-0.5c-0.2-0.2-0.3-0.6-0.3-1c0-0.5,0.2-1,0.7-1.3c0.4-0.3,1.1-0.5,1.8-0.5c0.4,0,0.8,0.1,1.2,0.2
	c0.4,0.1,0.7,0.2,1,0.4l-0.4,0.7c-0.5-0.4-1.1-0.5-1.9-0.5c-0.5,0-1,0.1-1.2,0.3c-0.3,0.2-0.4,0.4-0.4,0.8c0,0.2,0.1,0.4,0.2,0.6
	c0.2,0.1,0.3,0.2,0.6,0.3c0.2,0.1,0.6,0.1,1,0.2c0.5,0.1,0.9,0.2,1.2,0.3c0.3,0.1,0.6,0.3,0.8,0.5c0.2,0.2,0.3,0.6,0.3,1
	c0,0.6-0.2,1-0.7,1.3c-0.5,0.3-1.1,0.5-1.9,0.5C237.2,49.8,236.7,49.7,236.2,49.5"/>
<polygon points="111.5,3.2 97.2,35.3 93.9,35.3 79.6,3.2 83.3,3.2 95.6,31.1 108,3.2 "/>
<path d="M119,34.5c-2.2-0.8-3.9-1.8-5.1-3l1.3-2.6c1.2,1.2,2.7,2.1,4.6,2.8c1.9,0.7,3.9,1.1,6,1.1c2.9,0,5-0.5,6.5-1.6
	c1.4-1.1,2.2-2.4,2.2-4.1c0-1.3-0.4-2.3-1.2-3.1c-0.8-0.8-1.7-1.4-2.9-1.8c-1.1-0.4-2.7-0.9-4.7-1.4c-2.4-0.6-4.4-1.2-5.8-1.8
	c-1.4-0.6-2.7-1.4-3.7-2.6c-1-1.2-1.5-2.7-1.5-4.7c0-1.6,0.4-3.1,1.3-4.4c0.9-1.3,2.2-2.4,4-3.2c1.8-0.8,4-1.2,6.6-1.2
	c1.8,0,3.6,0.3,5.4,0.8c1.8,0.5,3.3,1.2,4.6,2.1l-1.1,2.7c-1.3-0.9-2.8-1.6-4.3-2c-1.5-0.4-3-0.7-4.5-0.7c-2.8,0-4.9,0.5-6.4,1.6
	c-1.4,1.1-2.1,2.5-2.1,4.2c0,1.3,0.4,2.3,1.2,3.1c0.8,0.8,1.8,1.4,2.9,1.8c1.2,0.4,2.8,0.9,4.8,1.4c2.4,0.6,4.3,1.2,5.7,1.7
	c1.5,0.6,2.7,1.4,3.7,2.6c1,1.1,1.5,2.7,1.5,4.7c0,1.6-0.4,3.1-1.3,4.4c-0.9,1.3-2.2,2.4-4,3.2c-1.8,0.8-4,1.2-6.7,1.2
	C123.5,35.6,121.2,35.2,119,34.5"/>
<path d="M151.6,33.5c-2.6-1.4-4.6-3.4-6-5.9c-1.5-2.5-2.2-5.3-2.2-8.4s0.7-5.9,2.2-8.4c1.5-2.5,3.5-4.5,6-5.9
	c2.6-1.4,5.5-2.1,8.6-2.1c2.4,0,4.6,0.4,6.6,1.2c2,0.8,3.7,2,5.1,3.5l-2.2,2.2c-2.5-2.5-5.7-3.8-9.5-3.8c-2.5,0-4.9,0.6-6.9,1.7
	c-2.1,1.2-3.7,2.8-4.9,4.8c-1.2,2-1.8,4.3-1.8,6.8s0.6,4.8,1.8,6.8c1.2,2,2.8,3.6,4.9,4.8c2.1,1.2,4.4,1.7,6.9,1.7
	c3.9,0,7-1.3,9.5-3.9l2.2,2.2c-1.4,1.5-3.1,2.7-5.2,3.5c-2,0.8-4.3,1.2-6.6,1.2C157,35.6,154.1,34.9,151.6,33.5"/>
<path d="M199.5,20.1c1.7-1.4,2.5-3.4,2.5-5.9c0-2.6-0.8-4.6-2.5-6c-1.7-1.4-4.1-2.1-7.3-2.1h-8.5v16.1h8.5
	C195.3,22.2,197.8,21.5,199.5,20.1 M201.9,6.1c2.3,2,3.5,4.7,3.5,8.1s-1.2,6.1-3.5,8.1c-2.3,1.9-5.5,2.9-9.7,2.9h-8.6v10.2h-3.4V3.2
	h12C196.3,3.2,199.6,4.2,201.9,6.1"/>
<path d="M231,24l-7.7-17.3L215.5,24H231z M232.2,26.8h-17.9l-3.9,8.6h-3.5l14.7-32.2h3.4l14.7,32.2h-3.6L232.2,26.8z"/>
<path d="M15.2,38.1c-5.4-5.4,0-19.6,12-33.9c-2.3,1.9-4.6,4-6.8,6.3C4,26.7-4.1,45,2.1,51.2c6.2,6.2,24.4-1.9,40.7-18.2
	c2.2-2.2,4.3-4.5,6.3-6.8C34.8,38.1,20.5,43.5,15.2,38.1"/>
<path d="M23.9,27.3c4.8-4.2,10-7.9,15.7-10.9c2.9-1.5,5.9-2.7,9.1-3.3c1.6-0.3,3.3-0.4,4.9-0.2c1.7,0.2,3.3,0.9,4.7,2
	c0.7,0.7,1.1,1.4,1.4,2.2c0.2,0.4,0.3,0.8,0.4,1.2c0.1,0.4,0.2,0.8,0.2,1.2c0.2,1.7,0.1,3.3-0.2,4.9c-0.6,3.2-1.8,6.2-3.3,9.1
	c-3,5.7-6.7,11-11,15.6c2-2.5,3.8-5.1,5.5-7.8c1.7-2.7,3.3-5.4,4.6-8.3c1.3-2.9,2.5-5.8,3-8.9c0.2-1.5,0.4-3.1,0.1-4.6
	c-0.1-0.4-0.1-0.7-0.2-1.1c-0.1-0.3-0.2-0.7-0.4-1c-0.3-0.7-0.7-1.3-1.1-1.8c-1.1-0.9-2.5-1.5-4-1.8c-1.5-0.2-3-0.1-4.6,0.1
	c-3.1,0.5-6,1.7-8.9,3c-2.9,1.3-5.6,2.9-8.3,4.6C29,23.6,26.4,25.4,23.9,27.3"/>
<path d="M35.2,15.6c3.9-2.7,8.1-4.9,12.7-6.3c1.1-0.4,2.3-0.6,3.5-0.8c1.2-0.2,2.4-0.3,3.6-0.2c1.2,0,2.4,0.2,3.6,0.6
	c1.2,0.4,2.3,1,3.3,1.8c2,1.6,3.2,4,3.5,6.4c0.3,2.5,0,4.9-0.7,7.2c-1.3,4.6-3.6,8.8-6.4,12.6c1.2-2,2.3-4.1,3.2-6.3
	c1-2.1,1.7-4.3,2.3-6.6c0.5-2.2,0.8-4.6,0.4-6.8c-0.3-2.2-1.4-4.3-3.1-5.7c-0.8-0.7-1.8-1.2-2.9-1.6c-1.1-0.4-2.2-0.5-3.3-0.6
	c-2.3-0.1-4.6,0.3-6.8,0.8c-2.3,0.6-4.5,1.4-6.6,2.3C39.4,13.4,37.3,14.5,35.2,15.6"/>
<path d="M49,5.7c2.2-0.8,4.6-1.2,7-1.1c2.4,0,4.9,0.5,7,1.8c2.1,1.3,3.8,3.3,4.7,5.6c0.9,2.3,1,4.8,0.4,7.1c0.1-2.4-0.3-4.7-1.3-6.7
	c-1-2-2.5-3.7-4.4-4.9c-1.9-1.2-4.2-1.7-6.4-2C53.7,5.3,51.4,5.4,49,5.7"/>
<path d="M58.6,1.8c1.5-0.3,3.1-0.2,4.7,0.2c1.5,0.4,3,1.1,4.3,2.1c1.3,1,2.4,2.3,3,3.7c0.4,0.7,0.6,1.5,0.8,2.2
	c0.2,0.8,0.3,1.5,0.4,2.3c-0.4-0.7-0.6-1.4-0.9-2.1c-0.4-0.7-0.7-1.4-1.1-1.9C69,7.1,68,6,66.8,5.1C65.7,4.2,64.4,3.5,63,3
	C61.6,2.4,60.2,2.1,58.6,1.8"/>
<path d="M65.7,0.2C66.4,0,67.3,0,68.1,0.1c0.8,0.1,1.6,0.5,2.3,0.9c0.3,0.2,0.6,0.5,0.9,0.8c0.2,0.3,0.5,0.7,0.7,1
	c0.4,0.7,0.5,1.6,0.5,2.4c-0.5-0.7-0.8-1.3-1.3-1.8c-0.5-0.5-1-1-1.5-1.4C68.5,1.3,67.2,0.7,65.7,0.2"/>
</svg>
