<?xml version="1.0" standalone="no"?>
<!DOCTYPE svg PUBLIC "-//W3C//DTD SVG 20010904//EN"
 "http://www.w3.org/TR/2001/REC-SVG-20010904/DTD/svg10.dtd">
<svg version="1.0" xmlns="http://www.w3.org/2000/svg"
 width="700.000000pt" height="700.000000pt" viewBox="0 0 700.000000 700.000000"
 preserveAspectRatio="xMidYMid meet">
<metadata>
Created by potrace 1.11, written by Peter Selinger 2001-2013
</metadata>
<g transform="translate(0.000000,700.000000) scale(0.100000,-0.100000)"
fill="#000000" stroke="none">
<path d="M946 6989 c-374 -48 -706 -301 -855 -650 -47 -110 -66 -183 -80 -299
-15 -118 -15 -4962 0 -5080 30 -246 137 -466 310 -639 173 -173 393 -280 639
-310 118 -15 4962 -15 5080 0 116 14 188 33 299 80 355 151 603 482 651 869
14 118 14 4963 -1 5080 -14 116 -33 188 -80 299 -151 355 -482 603 -869 651
-106 13 -4993 12 -5094 -1z m5167 -1324 c190 -40 344 -196 355 -359 l4 -61
-59 80 c-33 44 -85 104 -117 133 -66 60 -205 138 -307 173 -38 13 -69 27 -69
31 0 7 39 14 95 16 17 1 60 -5 98 -13z m-467 -136 c335 -59 605 -287 715 -606
17 -51 50 -207 49 -237 -1 -6 -31 52 -69 130 -37 77 -87 169 -110 203 -93 136
-236 261 -401 349 -92 50 -279 115 -395 138 -55 11 -82 20 -73 25 19 12 213
11 284 -2z m-2978 -311 c-463 -566 -826 -1191 -971 -1668 -135 -443 -110 -787
68 -974 167 -174 432 -222 805 -146 507 103 1215 490 1865 1019 44 36 87 70
95 75 29 21 -177 -210 -346 -389 -631 -666 -1363 -1223 -2014 -1534 -234 -112
-452 -189 -665 -237 -104 -24 -143 -28 -290 -28 -195 -1 -240 7 -363 66 -279
132 -376 458 -271 913 140 613 601 1387 1274 2141 119 133 388 406 550 559
115 108 336 305 343 305 2 0 -34 -46 -80 -102z m2677 65 c222 -43 396 -134
536 -280 204 -212 301 -506 258 -788 l-13 -90 -8 112 c-37 563 -393 927 -971
994 -102 11 -345 9 -512 -6 l-60 -5 45 15 c197 68 518 89 725 48z m-64 -316
c253 -66 449 -231 547 -463 148 -351 55 -874 -258 -1446 -59 -107 -226 -368
-236 -368 -2 0 16 37 42 83 134 241 285 588 343 787 68 235 75 288 76 510 0
185 -2 213 -23 285 -75 259 -266 444 -533 517 -74 20 -107 23 -284 23 -219 0
-270 -7 -490 -62 -261 -66 -557 -182 -870 -342 -71 -36 -134 -67 -140 -69 -5
-2 35 26 90 63 376 248 886 454 1250 504 39 5 142 8 230 6 130 -3 178 -8 256
-28z m-291 -361 c318 -78 470 -266 487 -606 18 -359 -118 -781 -423 -1311
-181 -316 -472 -716 -696 -959 -49 -53 -48 -52 77 115 279 373 585 889 735
1239 66 155 133 354 171 514 39 164 50 364 26 491 -21 110 -83 237 -138 284
-54 47 -162 103 -235 122 -84 23 -254 33 -359 23 -104 -10 -313 -61 -468 -113
-377 -126 -943 -439 -1462 -807 -193 -138 -175 -113 50 67 509 407 1090 745
1495 868 128 39 280 76 357 86 87 13 311 5 383 -13z"/>
</g>
</svg>
